<?xml version="1.0" encoding="UTF-8"?><svg xmlns="http://www.w3.org/2000/svg" data-name="ARTWORK" viewBox="0 0 1000 1000"><g fill="#d85bd2"><path d="M412.969 148.945c-26.69-6.433-54.656-.791-81.418 5.338-38.844 8.896-77.768 18.926-113.618 36.327C52.828 270.745 5.492 497.213 76.745 655.875a270 270 0 0 0 10.126 20.224 266 266 0 0 0 7.592 12.862c9.624 15.297 21.116 29.39 34.457 41.601 14.988 13.72 32.133 24.932 50.036 34.541 122.918 65.971 273.859 53.62 407.457 13.465 30.959-9.305 61.89-20.182 88.753-38.167 48.577-32.522 79.557-85.217 104.653-138.014 23.709-49.88 43.867-102.234 50.191-157.099 6.323-54.864-2.176-112.815-32.147-159.203-22.373-34.627-55.472-61.182-91.02-82.06-98.579-57.896-220.472-74.685-331.032-45.596"/><path d="M414.041 145.056c-22.639-6.161-45.986-4.275-68.745.086-22.634 4.336-45.216 9.559-67.415 15.751-37.428 10.439-73.712 24.993-105.405 47.767-51.548 37.04-88.824 90.066-111.355 149.032-11.61 30.384-17.977 60.782-21.94 92.401a416 416 0 0 0-3.202 47.272c-.085 8.038-.032 16.11.509 24.132.525 7.785 1.49 16.225 2.15 23.034 2.964 30.575 9.829 62.144 20.484 92.09 6.713 18.868 13.763 34.851 24.261 52.529 11.238 18.922 25.102 36.476 41.602 51.087 32.017 28.352 72.187 47.725 112.593 60.932 39.517 12.916 81.199 19.158 122.68 20.677 42.222 1.547 84.931-1.641 126.496-9.193 41.644-7.566 82.869-16.981 123.072-30.351 40.739-13.548 79.451-33.138 108.914-65.086 13.879-15.05 26.017-31.349 37.234-48.764 10.998-17.074 20.104-34.899 29.065-53.084 39.084-79.317 69.807-167.598 52.582-256.953-7.979-41.392-27.084-79.495-56.129-110.101-28.547-30.08-64.633-53.078-101.925-70.767-76.129-36.112-162.487-50.651-246.215-40.642-20.359 2.434-40.516 6.124-60.356 11.311-5.536 1.447-8.901 7.566-7.399 13.031 1.537 5.593 7.477 8.851 13.031 7.399 77.663-20.306 160.322-17.63 237.033 6.519 37.89 11.928 73.83 28.884 106.98 51.435 31.971 21.749 59.99 49.557 77.233 84.774 17.442 35.623 23.159 76.229 20.953 116.102-2.347 42.422-14.433 84.329-30.11 123.96-14.841 37.517-32.521 74.414-54.149 108.526-20.498 32.331-47.071 60.998-80.506 79.703-18.521 10.362-38.091 17.761-58.29 24.29-19.305 6.24-38.864 11.762-58.55 16.666-19.992 4.98-40.158 9.368-60.547 12.366-5.193.763-9.017 1.264-14.052 1.981-4.772.68-9.677 1.308-15.054 1.931a642 642 0 0 1-30.682 2.82c-78.919 5.324-159.502-4.724-230.313-41.004-18.811-9.638-37.002-20.866-52.704-35.102-15.207-13.787-27.735-29.916-38.099-47.594-9.384-16.005-16.355-31.382-22.422-47.764-5.193-14.022-9.724-28.444-12.952-43.054-6.632-30.01-9.352-58.766-9.114-89.772s3.467-59.818 11.53-89.47c8.058-29.634 17.114-56.929 31.219-83.666 14.002-26.541 30.834-50.225 51.673-71.459 21.41-21.816 45.793-39.458 73.17-53.253 39.434-19.87 83.265-31.154 126.215-40.566 21.154-4.636 43.27-8.378 64.809-4.183 5.038.981 7.212-6.398 2.144-7.777Z"/></g><g fill="#70e8a0"><path d="M763.83 181.035c-16.892-47.051-33.955-98.303-16.739-145.866 1.502-4.15 4.608-7.755 8.738-9.313 12.034-4.54 19.563 9.93 22.062 21.408a414.5 414.5 0 0 1 8.085 121.807c8.073-23.974 16.231-48.14 28.993-69.982s30.623-41.47 53.616-52.018c3.662-1.68 8.163-3.063 11.519-.833 2.23 1.482 3.301 4.194 4.055 6.737 4.067 13.701 2.577 28.458-3.636 41.329-14.893 30.854-35.83 58.755-61.226 81.741 30.715-22.812 67.279-37.679 105.198-42.775 9.836-1.322 20.771-1.796 27.416 8.216 4.643 6.996 4.428 16.166.573 23.625-7.786 15.066-24.084 20.667-39.345 25.578l-60.579 19.497c32.025 2.815 68.11 7.82 87 33.832 3.359 4.625 6.083 10.092 5.731 15.797-.474 7.686-6.633 14.161-13.805 16.965s-15.17 2.539-22.796 1.467c-29.735-4.18-56.499-19.671-82.405-34.854a998 998 0 0 1 27.812 34.11c13.083 16.79 33.748 59.302 4.767 71.907-18.148 7.893-40.385-16.29-49.736-28.818-12.69-17.003-20.574-37.698-21.635-58.939-2.633 20.608-5.842 41.644-15.668 59.949s-27.628 33.636-48.362 34.95c-7.23.458-15.011-1.024-20.209-6.07-8.312-8.069-7.067-21.669-3.844-32.796 8.956-30.919 28.767-58.578 55.159-77.009-23.711 17.348-52.288 27.971-81.574 30.321-11.893.955-24.518.433-34.13-7.707-4.445-3.764-7.511-9.179-7.723-14.999-.522-14.347 13.646-21.572 26.076-25.871a376.6 376.6 0 0 1 97.561-19.804c-39.454-6.15-80.557-13.244-105.846-52.469-6.94-10.764-8.429-23.975-4.807-36.259.338-1.145.871-2.2 1.767-2.973 1.73-1.492 4.262-1.477 6.54-1.311 48.787 3.559 88.845 38.294 124.979 71.266"/><path d="M767.951 179.899c-6.963-20.434-13.757-41.016-18.034-62.21-2.125-10.531-3.413-19.606-3.877-30.422a152 152 0 0 1 .127-15.858q.238-3.88.699-7.739c.033-.277.227-1.759.155-1.245-.096.684.044-.291.053-.351.06-.393.116-.787.178-1.18q.299-1.92.656-3.828a132 132 0 0 1 3.899-15.513q.557-1.754 1.169-3.488c.143-.405.284-1.319.591-1.618-.059.057-.684 1.363-.057.218.157-.287.301-.58.464-.864.244-.426.516-.832.786-1.241.672-1.016-.66.665.185-.206.396-.409.777-.822 1.203-1.202.047-.042.51-.494.553-.473-.013-.007-1.085.719-.154.17.419-.247.834-.492 1.259-.729.145-.081.898-.379.104-.07-.83.323.08-.006.292-.074.406-.131.817-.226 1.227-.336.113-.03.524-.042.602-.121-.15.152-1.534.101-.572.092.382-.003.761-.034 1.143-.021.167.006.559.089.744.051-.027.005-1.44-.314-.843-.1.334.12.716.157 1.059.259.173.052.343.117.517.167.862.247-.412-.102-.568-.254.449.44 1.493.878 2.065 1.206.566.324-.581-.46-.585-.465.086.135.32.259.439.368.383.351.766.695 1.129 1.068q.416.428.807.879c.178.205 1.109 1.137.378.435-.704-.675.156.246.333.505q.476.7.912 1.425.666 1.111 1.25 2.269.346.684.664 1.381c.091.2.174.405.269.602.385.797-.453-1.204-.158-.369.633 1.786 1.302 3.54 1.802 5.372 1.361 4.987 2.217 10.151 3.144 15.232a413 413 0 0 1 2.661 16.468q.134.953.264 1.907c-.158-1.147.048.367.097.746q.29 2.226.554 4.454.492 4.139.901 8.288a414.5 414.5 0 0 1 .529 75.585c-.291 3.466 2.892 6.456 6.078 6.885 3.557.478 6.555-1.678 7.691-5.021 3.517-10.35 7.039-20.702 10.948-30.912a379 379 0 0 1 3.734-9.388l.352-.848c.08-.192.585-1.383.233-.557-.325.763.076-.175.118-.273l.362-.842q.423-.982.854-1.961c2.214-5.031 4.574-9.998 7.124-14.867 4.587-8.76 9.815-17.142 15.799-25.016.505-.665-.316.427-.328.425.054.008.445-.566.491-.625a147 147 0 0 1 3.528-4.294 136 136 0 0 1 4.593-5.107 122 122 0 0 1 10.339-9.741c.873-.729 1.765-1.433 2.651-2.147.639-.515-.431.336-.456.348.217-.11.431-.328.626-.476q.732-.553 1.473-1.092 2.858-2.082 5.851-3.965c2.993-1.883 4.038-2.441 6.121-3.549a94 94 0 0 1 4.47-2.228l.718-.331c1.573-.734-1.025.343-.05.021 1.125-.372 2.209-.747 3.368-1.007 1.36-.306-1.258-.039.103.032.245.013.522.03.767.019.822-.039-1.219-.391-.49-.036 1.678.817-.871-.583.302.168-.094-.06-.968-.971-.553-.383.066.093.405.506.506.539-.244-.079-.888-1.437-.308-.296.114.224.248.438.363.662.097.189.188.531.33.685-.266-.289-.497-1.333-.195-.366.763 2.441 1.412 4.891 1.855 7.414.05.282.295 2.047.178 1.013-.115-1.013-.003-.024.015.153q.061.577.116 1.153c.126 1.347.21 2.693.231 4.046.039 2.513-.115 5.012-.378 7.51-.125 1.188-.179-.194.046-.305-.065.032-.118.767-.133.857a59 59 0 0 1-2.293 9.289 60 60 0 0 1-.58 1.651c-.168.458-.44 1.884-.849 2.179.005-.004.599-1.338.209-.513-.125.264-.238.535-.36.801q-.428.927-.882 1.84a265 265 0 0 1-17.113 29.535 269 269 0 0 1-9.691 13.56c-.181.238-.95 1.226-.21.279a302 302 0 0 1-2.487 3.149 267.3 267.3 0 0 1-31.078 32.687c-3.273 2.912-3.218 8.277-.688 11.551 2.458 3.181 7.788 4.851 11.349 2.266 12.023-8.729 24.778-16.384 38.234-22.696a229 229 0 0 1 4.678-2.131c.871-.385 1.746-.761 2.62-1.139.478-.207 1.587-.616-.577.242.53-.21 1.054-.439 1.582-.655a229 229 0 0 1 31.439-10.3 228 228 0 0 1 24.672-4.708l-2.456.33c4.564-.603 9.173-1.047 13.763-.454l-2.469-.332c1.89.274 3.6.838 5.413 1.393-2.69-.822-1.372-.592-.651-.223q.681.35 1.331.755c.401.25.975.523 1.286.88l-1.176-.895q.355.296.694.609c.706.652 1.263 1.481 1.969 2.115q-1.402-1.85-.545-.663.228.325.438.661.502.784.93 1.61c.361.698.647 2.192-.076-.322.143.497.364.983.517 1.479.361 1.165.602 2.354.775 3.56l-.335-2.494a25.8 25.8 0 0 1-.018 6.267l.336-2.5a27 27 0 0 1-1.239 5.143l-.182.501q-.545 1.386.343-.77c-.182.248-.327.708-.456.968a35.5 35.5 0 0 1-2.812 4.674c-.182.255-.4.511-.569.777 1.489-2.348.78-1.003.291-.421a38 38 0 0 1-3.251 3.409 40 40 0 0 1-1.763 1.542c-.558.461-1.964 1.3.453-.323-.257.173-.503.376-.753.558a51 51 0 0 1-4.338 2.814 65 65 0 0 1-4.191 2.23q-1.075.524-2.166 1.014l-.877.389c-1.629.723 2.322-.954.289-.121-6.6 2.702-13.455 4.74-20.245 6.899l-25.631 8.148c-9.691 3.081-19.367 6.207-29.047 9.321-4.65 1.496-7.645 5.797-6.986 10.701.679 5.051 4.676 8.024 9.579 8.457 6.458.57 12.91 1.217 19.337 2.078l-2.593-.348c11.469 1.557 22.932 3.775 33.829 7.756 1.259.46 2.506.95 3.749 1.453 1.4.566-1.008-.426-1.03-.438.265.146.582.251.861.374q1.071.472 2.13.971a80 80 0 0 1 7.36 3.944 71 71 0 0 1 4.979 3.318q.37.273.739.548c1.459 1.08-1.924-1.555-.522-.401 2.083 1.715 4.099 3.484 5.973 5.428a59 59 0 0 1 3.108 3.489c.241.293.551.591.74.918-.241-.415-1.47-1.939-.517-.658a48 48 0 0 1 1.533 2.174c1.034 1.562 1.909 3.186 2.715 4.874.566 1.186-.817-2.4-.258-.536.131.439.296.868.425 1.308.283.967.483 1.942.631 2.938l-.349-2.596c.168 1.419.189 2.815.035 4.236l.349-2.596a17.5 17.5 0 0 1-.747 3.225q-.153.447-.33.884.998-2.291.503-1.255c-.265.486-.503.983-.789 1.459-.246.41-.522.796-.78 1.197-.883 1.374 1.703-1.972.036-.099a23 23 0 0 1-2.252 2.195c-1.684 1.432 1.733-1.187.247-.186-.405.272-.804.548-1.219.805-.973.602-2.007 1.037-3.006 1.578 2.671-1.448 1.139-.486.333-.208q-1.114.383-2.255.677c-1.33.343-2.679.588-4.039.78l2.597-.349c-4.936.617-9.888.329-14.806-.319l2.598.349c-12.603-1.736-24.783-5.513-36.496-10.418l2.335.985c-16.173-6.828-31.373-15.664-46.492-24.526-4.224-2.476-9.676-1.29-12.619 2.519-3.119 4.037-2.438 9.085.765 12.844a1004 1004 0 0 1 25.815 31.564l1.396 1.784c.32.41 1.272 1.639 0-.007-1.142-1.479-.592-.773-.342-.438a102 102 0 0 1 2.446 3.405 109 109 0 0 1 5.12 8.286 113 113 0 0 1 5.33 10.843l-.987-2.339c2.564 6.077 4.605 12.411 5.52 18.958l-.35-2.603c.476 3.589.597 7.21.119 10.806l.35-2.604c-.328 2.275-.895 4.49-1.773 6.616l.987-2.34a23 23 0 0 1-1.976 3.686c-.18.27-.382.527-.559.798-.811 1.237 1.711-2.063.723-.951-.482.542-.953 1.084-1.472 1.592s-1.192.945-1.671 1.482c.285-.319 2.237-1.661.851-.678q-.444.315-.902.61a29 29 0 0 1-4.438 2.321l2.34-.988a20 20 0 0 1-4.436 1.204l2.604-.35c-1.898.25-3.782.232-5.68-.007l2.605.35c-2.508-.357-4.919-1.077-7.261-2.035l2.341.988c-3.858-1.629-7.433-3.836-10.784-6.336-.238-.177-.47-.374-.715-.541-.181-.123 1.889 1.488 1.097.842-.407-.332-.821-.655-1.227-.989a85 85 0 0 1-2.567-2.2 103 103 0 0 1-4.687-4.453 124 124 0 0 1-7.951-8.866q-.793-.978-1.571-1.967c-.899-1.139 1.627 2.137.605.782q-.424-.56-.844-1.122a113 113 0 0 1-4.626-6.733 113 113 0 0 1-8.619-16.467l.989 2.343c-3.629-8.681-6.156-17.769-7.438-27.092l.35 2.608a108 108 0 0 1-.777-8.423c-.269-5.116-4.319-10.057-9.811-9.811-2.537.114-5.169.947-6.937 2.873-1.882 2.05-2.522 4.201-2.873 6.937q-.299 2.337-.611 4.672l.351-2.609c-2.143 15.91-4.887 31.899-11.082 46.801l.993-2.354c-1.827 4.326-3.911 8.548-6.385 12.543a100 100 0 0 1-3.617 5.388q-.435.61-.882 1.212c-.03.041-.455.595-.45.6-.005-.005 1.341-1.706.765-.99-.734.912-1.465 1.824-2.231 2.71a72 72 0 0 1-4.28 4.548 69 69 0 0 1-3.492 3.172c-.188.159-.386.311-.569.477-.976.881.706-.383.772-.534-.266.604-1.851 1.355-2.402 1.732a61 61 0 0 1-2.893 1.863 57 57 0 0 1-5.391 2.875c-.295.137-.594.264-.888.403-1.048.498 2.002-.806.922-.383-.528.207-1.053.423-1.585.621a50 50 0 0 1-3.226 1.08 49 49 0 0 1-7.143 1.546l2.531-.34c-3.514.461-7.037.548-10.557.093l2.538.341a32 32 0 0 1-3.491-.69q-.976-.255-1.93-.586c-.818-.285-1.84-1.16.421.228-.989-.607-2.079-1.023-3.055-1.671a19 19 0 0 1-.816-.572q1.804 1.428.961.72c-.422-.395-.862-.766-1.266-1.181-.328-.337-.627-.696-.943-1.043-1.083-1.193 1.451 2.128.134.091-.582-.899-.999-1.865-1.508-2.801 1.326 2.441.586 1.412.305.599q-.299-.867-.528-1.756a29 29 0 0 1-.623-3.194l.344 2.558c-.45-3.531-.323-7.075.135-10.599l-.345 2.565c.918-6.584 2.964-12.975 5.287-19.185a156 156 0 0 1 1.819-4.612c.595-1.449-.34.796-.372.879.183-.485.414-.96.624-1.435q.526-1.193 1.075-2.376a148 148 0 0 1 4.723-9.303 145 145 0 0 1 11.055-17.071q.393-.521.789-1.039c.784-1.032-1.577 2.009-.404.53.541-.681 1.082-1.362 1.632-2.036q1.65-2.022 3.373-3.982a144 144 0 0 1 6.981-7.401c2.722-2.688 5.518-5.299 8.431-7.781a170 170 0 0 1 4.44-3.63c1.005-.8-2 1.521-.502.387q.623-.474 1.251-.943c.838-.624 1.675-1.25 2.531-1.85l-9.66-16.527c-8.258 6.019-17.269 11.04-26.463 15.471a166 166 0 0 1-5.159 2.375c-.377.166-2.424 1.04-.934.411 1.565-.66-.592.24-.95.385q-.79.32-1.586.634c-1.237.487-2.471.973-3.724 1.416a160.5 160.5 0 0 1-31.998 7.734l2.549-.342c-8.123 1.079-16.45 1.812-24.612.736l2.552.343c-2.72-.388-5.408-.974-8.004-1.885-.323-.114-.643-.238-.965-.355-1.3-.47.723.403.866.381-.417.065-1.488-.694-1.868-.891-1.336-.691-2.546-1.531-3.809-2.337-.99-.632 1.561 1.296.659.525-.272-.233-.555-.453-.825-.688q-.777-.674-1.493-1.412c-.716-.738-.91-1.02-1.362-1.535-.755-.861 1.168 1.698.576.721-.175-.29-.387-.563-.57-.849a22 22 0 0 1-1.015-1.768c-.155-.302-.29-.614-.442-.916-.514-1.02.7 1.985.394.887-.392-1.406-.816-2.732-1.015-4.188l.344 2.557a21.2 21.2 0 0 1 .067-5.114l-.344 2.558c.211-1.339.626-2.565 1-3.858.326-1.123-1.152 2.425-.411.98.124-.242.237-.488.363-.729.378-.72.803-1.416 1.266-2.085.154-.223.329-.436.477-.662-1.541 2.341-1.207 1.509-.741.986.459-.516.907-1.034 1.394-1.525q.664-.668 1.373-1.291c.265-.233.539-.454.805-.686 1.29-1.123-2.006 1.45-.601.455a52 52 0 0 1 7.158-4.274 68 68 0 0 1 2.02-.947c.271-.122.545-.239.816-.36 1.633-.727-2.321.937-.661.283a123 123 0 0 1 4.104-1.554c15.057-5.328 30.55-9.541 46.176-12.828a381 381 0 0 1 27.224-4.69l-2.573.346a385 385 0 0 1 24.985-2.519c4.85-.329 8.852-3.438 9.52-8.404.58-4.315-2.174-9.889-6.943-10.635-18.351-2.872-36.871-5.876-54.357-12.36a136 136 0 0 1-4.509-1.764c-1.86-.766 2.243.974-.011-.008q-3.172-1.38-6.256-2.943a104 104 0 0 1-11.778-6.959 98 98 0 0 1-2.869-2.043c-.331-.245-1.968-1.497-.521-.378 1.405 1.087-.309-.252-.69-.56a94 94 0 0 1-5.429-4.738c-3.643-3.436-6.946-7.199-10.148-11.043q-.663-.797-1.31-1.607l-.647-.82c-.695-.874 1.489 1.982.358.452-.859-1.162-1.722-2.322-2.533-3.519a42 42 0 0 1-2.438-4.081c-.385-.737-.725-1.49-1.086-2.238-.127-.263-.427-1.162-.009.068.481 1.417-.046-.16-.148-.472a39 39 0 0 1-1.156-4.532c-.093-.477-.437-2.779-.243-1.245.185 1.461.032.203-.007-.165a45 45 0 0 1-.123-1.368c-.23-3.133-.106-6.27.298-9.383l-.329 2.447c.314-2.21.765-4.414 1.367-6.565.131-.468.2-1.183.48-1.566l-.532 1.307q.755-1.228-.597.681l-1.14.824q.943-.534-.275.031c-1.618.667.321.026.731-.04l-2.494.335c3.077-.327 6.304.24 9.352.648l-2.52-.339c8.819 1.219 17.59 3.029 25.988 6.033q3.109 1.112 6.162 2.369l.733.304c.942.386-1.106-.457-1.002-.423.495.164.979.422 1.457.632q1.577.694 3.137 1.423a174 174 0 0 1 12.075 6.236c7.933 4.485 15.538 9.532 22.887 14.916a347 347 0 0 1 5.471 4.104c1.346 1.028-1.516-1.183-.181-.14q.649.505 1.296 1.013 1.402 1.101 2.794 2.217a441 441 0 0 1 10.787 8.943c7.887 6.741 15.545 13.736 23.209 20.727 3.722 3.395 9.991 3.953 13.619 0 3.396-3.699 3.975-9.993 0-13.619-16.874-15.395-34.168-30.537-53.03-43.476-18.284-12.542-38.676-22.918-60.42-27.808-6.5-1.461-13.396-2.712-20.079-2.644-5.482.056-10.683 2.246-13.682 7.003-2.272 3.604-3.086 8.599-3.471 12.772l.33-2.454c-.961 7.127-.973 13.978.642 21.042 1.423 6.222 3.872 12.302 7.215 17.738 5.786 9.409 13.101 17.712 21.791 24.536 8.866 6.962 18.348 12.343 28.737 16.688 8.91 3.727 18.182 6.471 27.586 8.632 10.69 2.456 21.528 4.189 32.361 5.873l2.577-19.039c-21.94 1.513-43.804 4.809-65.186 9.964a376 376 0 0 0-30.776 8.822c-8.079 2.694-16.478 5.596-23.35 10.77-3.96 2.981-7.478 6.262-10.033 10.577s-3.888 9.317-3.925 14.31c-.087 11.702 7.36 21.987 17.319 27.557 8.941 5.001 19.38 6.348 29.485 5.953s20.358-1.923 30.243-4.215c19.386-4.494 38.314-12.276 54.812-23.441 2.043-1.383 4.039-2.828 6.032-4.281 2.074-1.512 3.692-3.157 4.398-5.719.631-2.291.346-5.341-.965-7.374-2.619-4.062-8.71-6.507-13.094-3.433-8.156 5.719-15.93 11.966-22.845 19.153s-13.119 15.063-18.54 23.398c-5.455 8.388-9.878 17.311-13.61 26.586-3.656 9.084-6.576 18.548-7.306 28.359-.757 10.179 2.016 21.581 10.167 28.351 9.377 7.788 21.389 8.898 33.026 6.935 9.167-1.546 18.064-5.739 25.479-11.29.905-.677 1.854-1.332 2.7-2.076l-.555.453q-1.78 1.439 1.366-1.032.295-.228.588-.457a67 67 0 0 0 2.683-2.222 71 71 0 0 0 4.861-4.666c3.49-3.679 6.693-7.71 9.438-11.973 11.565-17.96 15.941-39.523 18.801-60.366q.68-4.953 1.312-9.912h-19.621c1.192 22.547 8.974 44.734 22.311 62.981 4.942 6.761 10.376 13.207 16.521 18.91 7.032 6.526 14.945 12.311 24.102 15.425s19.135 1.986 27.266-3.268c7.164-4.629 12.445-11.706 14.347-20.082 3.612-15.908-2.255-32.625-9.426-46.678-2.866-5.616-6.168-11.042-10.004-16.051-7.673-10.019-15.648-19.819-23.75-29.493q-2.91-3.473-5.849-6.921l-11.854 15.363c16.72 9.796 33.536 19.366 51.548 26.618 8.679 3.494 17.639 6.34 26.828 8.14 10.301 2.018 21.272 3.409 31.562.535s19.086-10.283 22.587-20.541c3.47-10.169-.83-20.931-7.025-29.022-5.39-7.039-11.749-12.918-19.228-17.72-6.731-4.323-14.207-7.557-21.769-10.114-17.116-5.789-35.383-7.725-53.292-9.302l2.593 19.159c21.104-6.795 42.221-13.557 63.267-20.53 8.386-2.779 16.932-5.839 24.434-10.584 8.345-5.279 15.286-12.51 19.153-21.672 2.142-5.076 3.243-10.774 2.586-16.284-.782-6.557-3.074-12.186-7.291-17.3-6.291-7.628-16.435-10.316-25.971-9.872-9.681.451-19.505 2.453-28.932 4.622a229 229 0 0 0-28.155 8.422c-18.853 6.987-36.885 16.169-53.383 27.679-1.014.708-2.031 1.414-3.03 2.145-.317.232-1.931 1.193-2.023 1.55.004-.015 1.424-1.067.65-.519-.543.385-1.069.799-1.6 1.201l10.661 13.817c15.926-14.727 30.07-31.396 42.143-49.416a266 266 0 0 0 15.999-27.248c2.69-5.278 5.357-10.635 7.188-16.281 1.814-5.595 2.81-11.519 3.082-17.39s-.33-11.844-1.651-17.552c-1.556-6.723-4.259-13.134-11.092-15.84-6.138-2.431-12.736.316-18.255 3.019a98 98 0 0 0-12.644 7.437c-17.065 11.805-30.699 27.942-41.156 45.766-11.811 20.132-19.773 42.274-27.195 64.316q-1.366 4.063-2.721 8.13l13.769 1.863a416 416 0 0 0-.45-70.476 436 436 0 0 0-4.841-36.121c-1.77-10.004-3.272-20.409-7.898-29.574-3.878-7.684-11.204-15.202-20.532-14.434-5.498.453-10.736 3.025-14.209 7.372-3.717 4.653-5.381 10.377-6.935 16.047-6.023 21.968-4.952 45.381-.809 67.571 4.158 22.272 11.609 43.781 19.492 64.967q1.444 3.877 2.906 7.747c.814 2.158 2.885 3.637 5.257 2.985 2.127-.585 3.733-3.063 2.985-5.257Z"/></g><g fill="#ff8345"><path d="M802.673 610.426c-79.687-11.806-161.503-9.082-240.228 7.999-36.171 7.848-73.384 19.698-99.086 46.332-13.445 13.933-23.011 31.279-29.551 49.504-18.152 50.589-12.069 110.438 20.179 153.435 15.604 20.805 36.843 37.34 60.84 47.365 20.049 8.376 41.707 12.198 63.311 14.514 54.18 5.809 109.332 2.45 162.407-9.893 8.013-1.863 16.33-3.938 24.362-2.161 6.232 1.378 11.71 4.959 17.131 8.327 41.694 25.895 88.955 42.775 137.619 49.153a786.5 786.5 0 0 1-81.425-78.843c31.154-12.16 41.151-50.543 46.464-83.561 5.671-35.244 10.807-71.303 4.689-106.473-6.117-35.17-25.377-69.873-57.305-85.84-12.565-6.284-26.456-9.417-40.31-11.742a389.8 389.8 0 0 0-115.98-1.931"/><path d="M803.889 606.015c-37.921-6.2-76.282-9.248-114.695-9.492-19.227-.122-38.58 1.23-57.707 3.091a695 695 0 0 0-57.528 8.026c-32.604 5.956-66.39 14.187-94.545 32.405-14.722 9.526-27.186 21.638-37.076 36.119-9.676 14.167-16.597 30.457-21.246 46.932-8.855 31.385-9.227 65.43-.615 96.91 8.684 31.746 26.951 60.659 52.77 81.214 13.866 11.039 29.098 19.659 45.77 25.718 18.147 6.594 37.3 9.775 56.42 11.945 38.023 4.317 76.568 4.082 114.545-.598 19.596-2.415 38.787-6.215 58.057-10.43 1.052-.23 2.105-.452 3.163-.653.603-.114 1.209-.213 1.813-.324.327-.06 1.896-.254.158-.049 2.423-.285 4.811-.341 7.247-.274.103.003 1.605.099.517.003-1.18-.104.688.123.958.178q1.443.293 2.848.738c.464.147 3.395 1.425 1.55.517.995.49 2 .953 2.979 1.478 7.751 4.152 15.042 9.168 22.742 13.433 31.321 17.349 65.381 30.064 100.452 37.294 9.007 1.857 18.076 3.286 27.193 4.483 3.722.488 7.533-2.84 8.846-5.95 1.396-3.307.945-8.109-2.001-10.574a792.5 792.5 0 0 1-81.514-78.754l-4.215 15.966c13.346-5.323 23.858-14.307 31.836-26.222 7.44-11.113 12.196-24.084 15.624-36.941 3.765-14.116 5.919-28.622 8.063-43.054 2.782-18.728 4.747-37.412 4.739-56.366-.004-9.297.008-18.541-1.205-27.774-1.083-8.242-2.431-16.497-4.49-24.558-3.622-14.185-9.656-28.118-17.628-40.403-8.236-12.692-18.628-23.786-31.175-32.289-13.896-9.418-30.239-14.373-46.589-17.473a385 385 0 0 0-55.687-6.404 390 390 0 0 0-27.444-.174c-9.618.277-19.454.556-28.959 2.128a384 384 0 0 0-9.699 1.732c-.603.116-1.258.193-1.844.359-.072.02-1.641.402-.524.254-4.352.577-8.649 3.462-8.427 8.427.182 4.069 3.746 9.047 8.427 8.427 4.299-.57 8.824-.488 13.163-.617 4.413-.131 8.801-.558 13.207-.835a390 390 0 0 1 52.968.271c4.405.323 8.807.695 13.2 1.148a391 391 0 0 1 9.4 1.084l1.408.183q1.045.138-.216-.029l.938.13c8.347 1.201 16.688 2.536 24.901 4.471 3.987.939 7.943 2.022 11.832 3.311a109 109 0 0 1 5.354 1.928c.466.182 2.958 1.256 1.369.546 1.068.477 2.133.957 3.186 1.467a87 87 0 0 1 8.973 5.029 89 89 0 0 1 3.869 2.628c.623.447 1.524.92 2.022 1.494-.036-.042-1.324-1.06-.496-.377.369.305.748.598 1.119.901 5.199 4.252 9.93 9.063 14.171 14.269.496.608 1.665 2.121.55.653q.77 1.009 1.519 2.032 1.5 2.054 2.909 4.172a121 121 0 0 1 5.29 8.739c1.65 3 3.178 6.066 4.586 9.187.353.782.691 1.57 1.037 2.355-.746-1.693.045.128.329.837a139 139 0 0 1 1.827 4.821 159 159 0 0 1 5.685 19.755c.351 1.614.693 3.233.949 4.866.098.624.176 1.254.267 1.879 0 .006.218 1.546.098.667s.082.658.083.666q.144 1.17.274 2.342c.485 4.372.873 8.768 1.204 13.154 1.338 17.737-.716 35.328-2.896 52.914q-.207 1.653-.42 3.305c-.005.04-.208 1.592-.081.631s-.08.591-.086.631a728 728 0 0 1-1.004 7.068c-.645 4.389-1.325 8.773-2.021 13.154-1.029 6.476-2.102 12.941-3.452 19.359-1.309 6.225-2.843 12.409-4.735 18.484a142 142 0 0 1-3.097 8.925q-.422 1.09-.863 2.174c-.833 2.04.488-1.062-.208.486a132 132 0 0 1-1.942 4.181 89 89 0 0 1-4.395 7.924 76 76 0 0 1-2.471 3.706c-.243.341-.741 1.37-1.118 1.53.682-.29 1.093-1.358.334-.434-.265.323-.524.652-.791.974a60 60 0 0 1-6.018 6.3q-.807.727-1.643 1.423c-.239.199-.482.392-.721.591-1.071.895.438-.11.456-.347-.046.625-3.032 2.111-3.61 2.471a52 52 0 0 1-5.585 3.022c-.311.144-.875.497-1.18.529.185-.019 2.089-.86.473-.22-3.197 1.267-5.713 3.19-6.672 6.672-.945 3.433.152 6.712 2.457 9.294a792.5 792.5 0 0 0 81.335 78.933l6.844-16.524c2.176.29-1.267-.184-1.691-.245q-1.49-.216-2.98-.446a371 371 0 0 1-6.373-1.038 345 345 0 0 1-38.15-8.813 349 349 0 0 1-24.509-8.138c-4.035-1.508-8.022-3.124-12.012-4.744-1.4-.568 1.318.568-.071-.027l-1.188-.507a343 343 0 0 1-9.432-4.219 346 346 0 0 1-22.991-11.761c-7.412-4.148-14.437-9.083-21.981-12.972-4.271-2.202-8.728-3.965-13.495-4.65-5.755-.827-11.174-.441-16.901.511-9.304 1.547-18.454 4.113-27.719 5.905a488 488 0 0 1-25.336 4.212c.069-.01-2.588.349-1.496.206 1.14-.15-.788.1-1.035.132q-.695.09-1.39.177-1.854.233-3.709.452a492 492 0 0 1-21.386 2.046 489 489 0 0 1-56.009.909 486 486 0 0 1-27.95-1.958 447 447 0 0 1-13.616-1.559c1.747.227.184.024-.143-.023q-.899-.127-1.796-.256a305 305 0 0 1-3.14-.473q-3.585-.557-7.154-1.207c-8.898-1.624-17.721-3.714-26.332-6.494a165 165 0 0 1-6.404-2.212 151 151 0 0 1-4.218-1.628c.028.011-2.508-1.051-1.255-.511 1.147.494-.393-.177-.664-.296q-.541-.238-1.08-.48-1.437-.647-2.86-1.325a145 145 0 0 1-5.282-2.65c-7.095-3.741-13.839-8.078-20.253-12.89-.128-.096-1.172-.904-.281-.21.96.747-.357-.287-.581-.466a149 149 0 0 1-6.917-5.853c-2.928-2.636-5.751-5.389-8.459-8.251s-5.3-5.833-7.766-8.905c-.329-.41-.652-.824-.98-1.234.216.271 1.13 1.497.052.066a139 139 0 0 1-4.905-6.883 147 147 0 0 1-11.342-20.305q-.557-1.212-1.093-2.434-.305-.7-.605-1.4c.037.086.626 1.537.226.521-.745-1.894-1.51-3.777-2.21-5.688a158 158 0 0 1-3.542-10.89c-2.109-7.375-3.616-14.871-4.746-22.453-.211-1.414.195 1.666.035.244-.043-.381-.095-.762-.141-1.143a172 172 0 0 1-.847-9.178 173 173 0 0 1-.368-11.529 176 176 0 0 1 1.168-19.974c.084-.724.378-3.432.148-1.306.822-7.603 2.629-15.24 4.671-22.596a170 170 0 0 1 5.61-16.77c.355-.902.721-1.8 1.086-2.698.131-.321.73-1.648.021-.05.225-.507.441-1.017.666-1.524 3.417-7.713 7.451-15.173 12.129-22.196a126 126 0 0 1 3.322-4.746c.327-.444.663-.881.989-1.326.85-1.161-.844 1.025.07-.089.701-.854 1.382-1.724 2.092-2.571a112 112 0 0 1 8.266-8.85c2.797-2.687 5.75-5.173 8.762-7.613 1.064-.862-1.105.809.002 0 .416-.304.823-.619 1.238-.925a131 131 0 0 1 7.323-5.032c6.544-4.186 13.432-7.821 20.513-11.01a207 207 0 0 1 2.503-1.105c.22-.095 1.731-.736.753-.326-.898.376.304-.124.4-.163a245 245 0 0 1 5.85-2.309 244 244 0 0 1 11.168-3.907c7.515-2.433 15.133-4.539 22.801-6.432 35.902-8.863 71.756-14.429 108.351-17.13 37.353-2.756 74.955-3.113 112.276.255a674 674 0 0 1 27.304 3.035c5.064.666 6.302-8.154 1.216-8.985Z"/></g><path d="M456.139 154.593c-27.682-3.794-55.842-4.07-83.503.024-27.518 4.073-54.08 12.114-79.443 23.504-50.993 22.901-94.247 59.98-125.174 106.497-30.718 46.202-48.133 101.55-50.409 156.919-2.113 51.399 10.214 103.115 35.904 147.747 12.386 21.518 27.939 41.519 46.258 58.311 9.369 8.588 19.51 16.446 30.229 23.279 2.309 1.472 4.599 2.846 7.074 4.02 1.847.876 3.929 1.563 5.7 2.543-2.18-1.206-.059.143.323.352q1.3.708 2.613 1.396c5.788 3.034 11.78 5.669 17.84 8.106 5.535 2.226 11.308 4.081 17.033 5.756 4.803 1.405 10.637-1.7 11.772-6.684 1.167-5.125-1.541-10.268-6.684-11.772-5.794-1.695-11.371-3.737-16.969-5.988-.692-.278-1.38-.564-2.069-.847 2.3.946-.038-.022-.425-.19a185 185 0 0 1-4.067-1.831 221 221 0 0 1-7.996-3.914c-5.231-2.694-10.058-6.318-14.994-9.531a198 198 0 0 1-11.795-8.306c-2.132-1.619 1.082.879-.55-.424-9.311-7.436-18.05-15.495-26.08-24.306-3.87-4.246-7.555-8.649-11.116-13.156-1.601-2.026 1.339 1.784-.217-.279-.453-.6-.909-1.197-1.36-1.799a243 243 0 0 1-7.817-11.078c-6.645-9.995-12.551-20.473-17.736-31.297a264 264 0 0 1-3.648-7.953c-.306-.697-.605-1.397-.908-2.096-1.044-2.404.861 2.103-.134-.322-.579-1.41-1.155-2.82-1.715-4.237a265 265 0 0 1-6.124-17.234 263 263 0 0 1-8.475-34.73c-.515-2.98-1.076-5.989-1.392-8.998.321 3.061-.117-1.017-.205-1.752q-.312-2.631-.568-5.268a264 264 0 0 1-1.139-19.033 288 288 0 0 1 1.75-39.418c.188-1.665.337-3.35.608-5.003-.436 2.66.022-.143.084-.58a300 300 0 0 1 6.376-32.131 304.4 304.4 0 0 1 14.166-42.204c-.959 2.293.683-1.566.95-2.174a303 303 0 0 1 13.521-27.063c6.606-11.719 13.791-23.064 21.836-33.854q.752-1.009 1.514-2.012c.176-.232 1.889-2.445.495-.656a289 289 0 0 1 9.595-11.701 285 285 0 0 1 13.133-14.185 281 281 0 0 1 21.818-19.814 285 285 0 0 1 3.94-3.163c.138-.109 2.334-1.819.777-.618q1.939-1.499 3.891-2.98c-1.341 1.016.142-.093.475-.343a297 297 0 0 1 5.791-4.234 297 297 0 0 1 25.587-16.318 301 301 0 0 1 17.904-9.391c6.028-2.908 11.61-5.371 16.952-7.514a327 327 0 0 1 38.038-12.603c25.447-6.737 52.001-10.604 78.352-10.377a288 288 0 0 1 19.342.83c4.471.34 5.592-7.302 1.072-7.921ZM247.571 692.196q-.391.535-.787 1.068c-.116.156-.837 1.041-.416.52-1.293 1.599-.715.865-.45.571l-.487.536c-.326.357-.662.705-.984 1.066-1.443 1.611-2.612 3.509-3.918 5.236-.128.17-1.009 1.32-.487.643.464-.602.067-.087-.024.028l-.458.583a138 138 0 0 1-4.395 5.288l-.369.42a4.7 4.7 0 0 0-.776.927q-.91 1.179-.23.297c.161.036.499-.632-.07.071l-.354.437q-.474.581-.954 1.158-.901 1.082-1.823 2.145a145 145 0 0 1-3.775 4.189 149 149 0 0 1-7.905 7.826 153 153 0 0 1-9.848 8.296l1.699-1.313c-1.77 1.363-3.549 2.712-5.315 4.081l1.736-1.342c-10.886 8.396-22.879 15.152-35.527 20.514l2.217-.935a143.5 143.5 0 0 1-21.843 7.208c-5.796 1.405-8.621 8.654-5.566 13.681 4.223 6.948 11.723 10.435 19.451 11.916 6.928 1.328 14.007 2.133 21.038 2.671 12.979.993 26.053.689 38.978-.844 13.646-1.619 27.11-4.316 40.226-8.439 13.019-4.092 25.836-9.311 37.689-16.096 6.293-3.602 12.405-7.531 18.248-11.827 3.373-2.48 6.689-5.047 9.924-7.705s5.34-6.256 7.168-9.965c.93-1.886.926-3.966-.4-5.682-1.208-1.564-3.419-2.451-5.378-1.833-1.755.553-3.504 1.097-5.232 1.73-2.374.87-4.513 2.124-6.564 3.577a195 195 0 0 1-10.211 6.76c-6.913 4.272-14.035 8.18-21.395 11.627-4.135 1.937-8.267 3.881-12.474 5.659l2.215-.935a209 209 0 0 1-40.971 12.47c-4.02.783-8.063 1.442-12.122 1.988l2.472-.332c-13.638 1.808-27.447 2.276-41.171 1.285-3.95-.285-7.889-.694-11.814-1.216l2.479.333c-4.955-.67-10.076-1.286-14.73-3.211l2.228.94c-1.403-.606-2.724-1.335-3.94-2.263l1.886 1.457a14 14 0 0 1-2.187-2.188l1.457 1.885a15 15 0 0 1-.788-1.163l-5.566 13.681c16.922-4.155 33.073-11.331 47.422-21.215 7.358-5.068 14.316-10.66 20.557-17.057 6.134-6.288 11.729-13.135 16.741-20.348 2.704-3.891 4.986-7.945 7.071-12.2q1.543-3.151 2.932-6.374c1.037-2.404 1.599-5.037 2.359-7.546.507-1.677-.468-3.55-2.056-4.189-1.749-.703-3.36-.016-4.435 1.453Z"/><path d="M520.439 156.824c27.999 1.145 55.846 5.031 83.006 11.967 26.559 6.782 51.376 15.997 75.313 28.504 11.871 6.203 23.364 13.135 34.354 20.793a316 316 0 0 1 8.185 5.908c-1.807-1.347 1.187.905 1.79 1.349.6.442 1.205.876 1.806 1.318 1.4 1.03 2.784 2.08 4.171 3.126.339.256 1.425 1.105-.16-.129q.44.341.879.684.877.688 1.749 1.378a288 288 0 0 1 11.651 9.769 274 274 0 0 1 27.502 28.082 291 291 0 0 1 6.357 7.801l.689.883c-.034-.044-1.118-1.485-.445-.573.517.7 1.055 1.385 1.578 2.081q1.57 2.092 3.097 4.215a262.7 262.7 0 0 1 25.375 43.541 259 259 0 0 1 2.065 4.594q.467 1.069.927 2.141c.103.24.615 1.48.068.155-.573-1.388.101.254.21.518a288 288 0 0 1 13.31 40.526c1.769 7.139 3.083 14.319 5.228 21.354.286.938.54 1.889.845 2.821.228.697.429 1.264.727 1.971 1.423 3.373-.241-1.072-.228-1.068.482.153.661 5.7.739 6.454q.643 6.229 1.019 12.479c.986 16.382.456 32.725-1.143 49.047-.406 4.14-.779 8.277-1.3 12.406-.123.975-.386 2.703-.085.68-.159 1.065-.303 2.132-.463 3.197a292 292 0 0 1-6.188 30.247 289 289 0 0 1-7.14 23.333 513 513 0 0 1-4.285 11.659 293 293 0 0 1-2.01 5.134c-.401.994-.815 1.983-1.219 2.976-.477 1.172.165-.388.219-.514-.244.565-.484 1.131-.729 1.696-6.53 15.06-14.993 29.42-24.381 42.867a268 268 0 0 1-5.16 7.14c-.371.496-2.497 3.282-1.088 1.46a260 260 0 0 1-7.627 9.386 262 262 0 0 1-17.308 18.455 269 269 0 0 1-20.837 18.169l-1.106.866c.326-.255 1.724-1.312.044-.039a326 326 0 0 1-4.876 3.635 292 292 0 0 1-10.368 7.22c-13.951 9.276-28.676 17.368-43.896 24.361a351 351 0 0 1-5.162 2.322c-1.008.444-2.02.88-3.03 1.318-.182.079-1.639.703-.375.164 1.291-.551-.588.244-.814.338a371 371 0 0 1-11.867 4.691 394 394 0 0 1-23.772 8.065c-16.18 4.927-32.66 8.854-49.3 11.873a469 469 0 0 1-11.653 1.962c-5.131.798-10.348 2.577-15.095 4.638l4.982-1.348c-7.195.929-14.211 1.502-21.467 1.435-7.155-.066-14.37.772-21.526 1.077-7.207.307-14.388.403-21.573 1.05-.757.068-1.517.126-2.273.202-.6.06-5.599.251-3.74.386 1.406.102-2.172-.189-1.945-.181l-2.275-.081c-3.797-.141-7.578-.278-11.378-.288-28.509-.078-57.01-1.514-85.455-3.342-7.966-.512-15.944-.688-23.911-1.225-4.17-.281-8.339-.749-12.512-.963-1.895-.097-3.789.06-5.684.146l-2.841.129-1.704.077q-4.182 1.09-2.272.103c-5.224-.39-10.221 4.874-9.991 9.991.257 5.747 4.395 9.574 9.991 9.991-1.308-.098.558.267.643.291.703.195 1.479.29 2.2.432 1.467.288 2.932.589 4.401.863 3.627.676 7.27.862 10.942 1.111 6.069.412 12.155.786 18.209 1.385 12.131 1.2 24.285 1.909 36.458 2.542 12.149.632 24.308 1.061 36.47 1.304s24.317.53 36.431-.278c6.08-.406 12.111.286 18.185-.03s12.111-.732 18.156-1.22c6.615-.534 13.353-.915 19.87-2.193 6.005-1.177 9.578-1.788 15.766-2.6.303-.04 2.249-.558 1.467-.398-1.084.221 2.164.158 3.046.203 1.311.067 2.633.055 3.946.075a60 60 0 0 0 10.679-.779 469 469 0 0 0 14.891-2.639 445 445 0 0 0 29.566-6.777c39.269-10.44 77.625-26.432 111.351-49.262 34.182-23.139 63.157-53.062 84.46-88.475 20.61-34.261 34.23-72.203 39.615-111.825 2.764-20.337 3.227-40.701 1.455-61.157-.464-5.361-1.103-10.7-1.822-16.032-.331-2.45-.682-4.897-1.07-7.339a282 282 0 0 0-.606-3.663c-.09-.525-.356-1.335-.321-1.83-.059.833.218.838.252-.068.359-9.483-2.208-19.045-4.545-28.156-8.399-32.755-22.755-64.086-42.517-91.55-19.092-26.533-42.791-50.169-69.922-68.499-26.816-18.118-57.206-31.489-88.131-40.797-32.085-9.657-65.531-14.867-98.998-16.084-8.248-.3-16.503-.343-24.754-.162-3.261.072-3.248 4.923 0 5.056ZM342.276 426.472c-5.397-.086-9.481 4.777-12.148 9.47-3.233 5.689-5.722 12.131-5.05 18.639 1.112 10.76 11.479 19.322 22.29 19.691 10.942.374 21.198-6.648 26.236-16.121 1.504-2.828 2.615-5.927 2.717-9.129.372-11.68-7.703-23.988-19.393-26.547-15.584-3.41-30.041 11.762-31.848 26.409-.796 6.457.848 13.771 6.167 17.518"/><path d="M344.191 424.557c-2.209-1.891-5.18-2.71-8.011-1.711-2.791.984-5.15 2.478-7.222 4.588-4.091 4.165-7.128 9.435-9.338 14.797-4.445 10.783-2.057 23.073 6.409 31.159 8.168 7.802 19.616 10.814 30.572 8.138 10.26-2.506 19.486-10.006 24.417-19.295 1.962-3.696 2.969-7.551 3.416-11.691.325-3.008-.127-6.067-.586-9.036-.407-2.628-1.242-5.096-2.273-7.538-.575-1.363-1.16-2.708-1.884-3.999-.896-1.597-2.119-2.969-3.244-4.406l1.309 1.695c-2.382-3.465-5.198-6.24-8.723-8.537-2.868-1.869-5.787-3.48-9.176-4.232s-6.842-1.186-10.29-.778c-4.242.501-7.993 1.595-11.833 3.524-6.123 3.076-11.206 8.366-14.891 14.064-3.704 5.727-6.354 12.829-5.926 19.724.271 4.365 1.248 8.487 3.21 12.401 1.098 2.19 2.666 4.549 4.754 5.87 1.973 1.249 4.06 1.773 6.364 1.984 1.666.152 3.403-1.036 4.21-2.415.962-1.644.716-3.268 0-4.921.621 1.435.109.148 0-.182-.128-.387-.282-.763-.416-1.15a30 30 0 0 0-1.527-3.584c-.706-1.418.485 1.431.074.227-.15-.44-.309-.873-.437-1.32a21 21 0 0 1-.575-2.786l.264 1.964c-.253-2.031-.207-4.062.058-6.089l-.285 2.124c.476-3.281 1.363-6.624 2.635-9.687l-.848 2.008a35.7 35.7 0 0 1 4.506-7.682l-1.324 1.714a34.5 34.5 0 0 1 5.775-5.826l-1.725 1.332c2.033-1.569 4.239-2.903 6.601-3.917l-2.035.859a24.2 24.2 0 0 1 5.966-1.63l-2.253.303a22.2 22.2 0 0 1 5.594.03l-2.243-.301c1.528.228 2.978.661 4.409 1.239l-2.035-.859c1.209.512 2.414 1.031 3.627 1.534l-2.034-.858c1.141.495 2.351 1.035 3.341 1.797l-1.697-1.311a43.3 43.3 0 0 1 5.734 5.514l-1.309-1.695a35.6 35.6 0 0 1 3.95 6.994l-.842-1.994c.881 2.153 1.53 4.395 1.854 6.701l-.292-2.176c.168 1.697.211 3.394.022 5.092l.294-2.189c-.158 1.145-.362 2.307-.777 3.39l.834-1.977c-1.442 3.166-2.933 6.233-5.067 9.001l1.319-1.707a33.4 33.4 0 0 1-5.531 5.528l1.697-1.311a31.4 31.4 0 0 1-6.71 3.963l1.992-.841a28 28 0 0 1-6.769 1.887l2.205-.296c-2.187.287-4.377.312-6.564.019l2.195.295a25 25 0 0 1-5.767-1.596l1.963.829a26.2 26.2 0 0 1-5.775-3.384l1.655 1.279a25.4 25.4 0 0 1-4.199-4.213l1.273 1.648c-1.254-1.651-2.36-3.443-3.197-5.341l.801 1.898a20.5 20.5 0 0 1-1.412-5.113l.275 2.043c-.282-2.359-.155-4.681.148-7.031l-.261 1.94c.364-2.512 1.016-4.961 1.885-7.345q.19-.523.395-1.041c.068-.173.471-1.12.093-.258s.042-.091.117-.26q.181-.411.37-.82a35 35 0 0 1 1.57-3.039 27 27 0 0 1 1.228-1.905c.527-.739.295-.157-.109.122.179-.124.34-.407.484-.573.213-.247.956-1.412 1.145-1.41-.077 0-.801.907-.207.265.204-.22.404-.442.617-.654q.25-.249.513-.483c.102-.09.702-.62.167-.157-.682.59 1.158-.971 1.455-1.289.321-.344.125-.165-.118.048.343-.302.708-.54 1.021-.872.319-.339.603-.681.955-.989 1.043-.911 1.059-2.924 0-3.83Zm145.318 1.915c-5.397-.086-9.481 4.777-12.148 9.47-3.233 5.689-5.722 12.131-5.05 18.639 1.112 10.76 11.479 19.322 22.29 19.691 10.942.374 21.198-6.648 26.236-16.121 1.504-2.828 2.615-5.927 2.717-9.129.372-11.68-7.703-23.988-19.393-26.547-15.584-3.41-30.041 11.762-31.848 26.409-.796 6.457.848 13.771 6.167 17.518"/><path d="M491.424 424.557c-2.209-1.891-5.18-2.71-8.011-1.711-2.791.984-5.15 2.478-7.222 4.588-4.091 4.165-7.128 9.435-9.338 14.797-4.445 10.783-2.057 23.073 6.409 31.159 8.168 7.802 19.616 10.814 30.572 8.138 10.26-2.506 19.486-10.006 24.417-19.295 1.962-3.696 2.969-7.551 3.416-11.691.325-3.008-.127-6.067-.586-9.036-.407-2.628-1.242-5.096-2.273-7.538-.575-1.363-1.16-2.708-1.884-3.999-.896-1.597-2.119-2.969-3.244-4.406l1.309 1.695c-2.382-3.465-5.198-6.24-8.723-8.537-2.868-1.869-5.787-3.48-9.176-4.232s-6.842-1.186-10.29-.778c-4.242.501-7.993 1.595-11.833 3.524-6.123 3.076-11.206 8.366-14.891 14.064-3.704 5.727-6.354 12.829-5.926 19.724.271 4.365 1.248 8.487 3.21 12.401 1.098 2.19 2.666 4.549 4.754 5.87 1.973 1.249 4.06 1.773 6.364 1.984 1.666.152 3.403-1.036 4.21-2.415.962-1.644.716-3.268 0-4.921.621 1.435.109.148 0-.182-.128-.387-.282-.763-.416-1.15a30 30 0 0 0-1.527-3.584c-.706-1.418.485 1.431.074.227-.15-.44-.309-.873-.437-1.32a21 21 0 0 1-.575-2.786l.264 1.964c-.253-2.031-.207-4.062.058-6.089l-.285 2.124c.476-3.281 1.363-6.624 2.635-9.687l-.848 2.008a35.7 35.7 0 0 1 4.506-7.682l-1.324 1.714a34.5 34.5 0 0 1 5.775-5.826l-1.725 1.332c2.033-1.569 4.239-2.903 6.601-3.917l-2.035.859a24.2 24.2 0 0 1 5.966-1.63l-2.253.303a22.2 22.2 0 0 1 5.594.03l-2.243-.301c1.528.228 2.978.661 4.409 1.239l-2.035-.859c1.209.512 2.414 1.031 3.627 1.534l-2.034-.858c1.141.495 2.351 1.035 3.341 1.797l-1.697-1.311a43.3 43.3 0 0 1 5.734 5.514l-1.309-1.695a35.6 35.6 0 0 1 3.95 6.994l-.842-1.994c.881 2.153 1.53 4.395 1.854 6.701l-.292-2.176c.168 1.697.211 3.394.022 5.092l.294-2.189c-.158 1.145-.362 2.307-.777 3.39l.834-1.977c-1.442 3.166-2.933 6.233-5.067 9.001l1.319-1.707a33.4 33.4 0 0 1-5.531 5.528l1.697-1.311a31.4 31.4 0 0 1-6.71 3.963l1.992-.841a28 28 0 0 1-6.769 1.887l2.205-.296c-2.187.287-4.377.312-6.564.019l2.195.295a25 25 0 0 1-5.767-1.596l1.963.829a26.2 26.2 0 0 1-5.775-3.384l1.655 1.279a25.4 25.4 0 0 1-4.199-4.213l1.273 1.648c-1.254-1.651-2.36-3.443-3.197-5.341l.801 1.898a20.5 20.5 0 0 1-1.412-5.113l.275 2.043c-.282-2.359-.155-4.681.148-7.031l-.261 1.94c.364-2.512 1.016-4.961 1.885-7.345q.19-.523.395-1.041c.068-.173.471-1.12.093-.258s.042-.091.117-.26q.181-.411.37-.82a35 35 0 0 1 1.57-3.039 27 27 0 0 1 1.228-1.905c.527-.739.295-.157-.109.122.179-.124.34-.407.484-.573.213-.247.956-1.412 1.145-1.41-.077 0-.801.907-.207.265.204-.22.404-.442.617-.654q.25-.249.513-.483c.102-.09.702-.62.167-.157-.682.59 1.158-.971 1.455-1.289.321-.344.125-.165-.118.048.343-.302.708-.54 1.021-.872.319-.339.603-.681.955-.989 1.043-.911 1.059-2.924 0-3.83Zm145.318 1.915c-5.397-.086-9.481 4.777-12.148 9.47-3.233 5.689-5.722 12.131-5.05 18.639 1.112 10.76 11.479 19.322 22.29 19.691 10.942.374 21.198-6.648 26.236-16.121 1.504-2.828 2.615-5.927 2.717-9.129.372-11.68-7.703-23.988-19.393-26.547-15.584-3.41-30.041 11.762-31.848 26.409-.796 6.457.848 13.771 6.167 17.518"/><path d="M638.657 424.557c-2.209-1.891-5.18-2.71-8.011-1.711-2.791.984-5.15 2.478-7.222 4.588-4.091 4.165-7.128 9.435-9.338 14.797-4.445 10.783-2.057 23.073 6.409 31.159 8.168 7.802 19.616 10.814 30.572 8.138 10.26-2.506 19.486-10.006 24.417-19.295 1.962-3.696 2.969-7.551 3.416-11.691.325-3.008-.127-6.067-.586-9.036-.407-2.628-1.242-5.096-2.273-7.538-.575-1.363-1.16-2.708-1.884-3.999-.896-1.597-2.119-2.969-3.244-4.406l1.309 1.695c-2.382-3.465-5.198-6.24-8.723-8.537-2.868-1.869-5.787-3.48-9.176-4.232s-6.842-1.186-10.29-.778c-4.242.501-7.993 1.595-11.833 3.524-6.123 3.076-11.206 8.366-14.891 14.064-3.704 5.727-6.354 12.829-5.926 19.724.271 4.365 1.248 8.487 3.21 12.401 1.098 2.19 2.666 4.549 4.754 5.87 1.973 1.249 4.06 1.773 6.364 1.984 1.666.152 3.403-1.036 4.21-2.415.962-1.644.716-3.268 0-4.921.621 1.435.109.148 0-.182-.128-.387-.282-.763-.416-1.15a30 30 0 0 0-1.527-3.584c-.706-1.418.485 1.431.074.227-.15-.44-.309-.873-.437-1.32a21 21 0 0 1-.575-2.786l.264 1.964c-.253-2.031-.207-4.062.058-6.089l-.285 2.124c.476-3.281 1.363-6.624 2.635-9.687l-.848 2.008a35.7 35.7 0 0 1 4.506-7.682l-1.324 1.714a34.5 34.5 0 0 1 5.775-5.826l-1.725 1.332c2.033-1.569 4.239-2.903 6.601-3.917l-2.035.859a24.2 24.2 0 0 1 5.966-1.63l-2.253.303a22.2 22.2 0 0 1 5.594.03l-2.243-.301c1.528.228 2.978.661 4.409 1.239l-2.035-.859c1.209.512 2.414 1.031 3.627 1.534l-2.034-.858c1.141.495 2.351 1.035 3.341 1.797l-1.697-1.311a43.3 43.3 0 0 1 5.734 5.514l-1.309-1.695a35.6 35.6 0 0 1 3.95 6.994l-.842-1.994c.881 2.153 1.53 4.395 1.854 6.701l-.292-2.176c.168 1.697.211 3.394.022 5.092l.294-2.189c-.158 1.145-.362 2.307-.777 3.39l.834-1.977c-1.442 3.166-2.933 6.233-5.067 9.001l1.319-1.707a33.4 33.4 0 0 1-5.531 5.528l1.697-1.311a31.4 31.4 0 0 1-6.71 3.963l1.992-.841a28 28 0 0 1-6.769 1.887l2.205-.296c-2.187.287-4.377.312-6.564.019l2.195.295a25 25 0 0 1-5.767-1.596l1.963.829a26.2 26.2 0 0 1-5.775-3.384l1.655 1.279a25.4 25.4 0 0 1-4.199-4.213l1.273 1.648c-1.254-1.651-2.36-3.443-3.197-5.341l.801 1.898a20.5 20.5 0 0 1-1.412-5.113l.275 2.043c-.282-2.359-.155-4.681.148-7.031l-.261 1.94c.364-2.512 1.016-4.961 1.885-7.345q.19-.523.395-1.041c.068-.173.471-1.12.093-.258s.042-.091.117-.26q.181-.411.37-.82a35 35 0 0 1 1.57-3.039 27 27 0 0 1 1.228-1.905c.527-.739.295-.157-.109.122.179-.124.34-.407.484-.573.213-.247.956-1.412 1.145-1.41-.077 0-.801.907-.207.265.204-.22.404-.442.617-.654q.25-.249.513-.483c.102-.09.702-.62.167-.157-.682.59 1.158-.971 1.455-1.289.321-.344.125-.165-.118.048.343-.302.708-.54 1.021-.872.319-.339.603-.681.955-.989 1.043-.911 1.059-2.924 0-3.83Z"/><path fill="#70e8a0" d="M417.523 722.471c4.369-10.176 9.681-19.94 15.936-29.082 1.586-2.317 3.177-4.635 4.837-6.902a157 157 0 0 1 2.286-3.045c-.967 1.255.418-.518.609-.758q.671-.84 1.354-1.672a146 146 0 0 1 11.294-12.258 138 138 0 0 1 9.073-8.027q.735-.591 1.476-1.176c1.235-.979-.401.34-.422.323.042.034.993-.752 1.064-.805 4.365-3.268 8.82-6.411 13.513-9.195a120 120 0 0 1 7.652-4.169 131 131 0 0 1 6.386-2.974c.308-.134 1.612-.691.367-.163-1.381.586.551-.222.664-.268 6.016-2.449 12.193-4.558 18.38-6.528 25.949-8.261 52.726-14.396 79.45-19.543 13.405-2.582 26.883-4.748 40.365-6.886 6.831-1.083 13.667-2.137 20.502-3.194a802 802 0 0 1 10.243-1.518q2.315-.327 4.63-.643l-.25.033c.445-.063.891-.119 1.337-.177q1.337-.176 2.674-.348c13.695-1.76 27.426-3.081 41.201-4.031s27.524-1.177 41.286-1.892c3.612-.188 7.063-.502 10.616-1.2 4.466-.877 4.256-7.806 0-8.822-6.987-1.667-14.202-1.711-21.359-1.877a824 824 0 0 0-21.148-.221c-13.862.033-27.716.474-41.564 1.08-13.904.608-27.9 1.324-41.729 2.936a657 657 0 0 0-43.026 6.472c-27.259 5.024-54.355 11.315-80.933 19.198-13.351 3.96-26.497 8.792-38.638 15.693a122 122 0 0 0-27.621 21.463c-8.077 8.399-15.182 17.826-21.164 27.822-5.877 9.82-10.445 20.498-14.051 31.35a179 179 0 0 0-2.442 7.988c-.523 1.86.488 3.901 2.265 4.615 1.622.652 4.107.212 4.886-1.601Zm-13.997 44.856c-.277 2.231-.631 4.491-.704 6.74-.07 2.164-.067 4.333-.058 6.497.018 4.5.191 8.969.586 13.451.796 9.037 1.862 18.193 3.868 27.049a127 127 0 0 0 4.218 14.549c.715 2.012 2.825 3.574 5.035 2.859 2.291-.741 3.235-2.765 2.859-5.035-.726-4.375-1.424-8.748-2.18-13.118-.74-4.271-1.502-8.543-2.154-12.828a248 248 0 0 1-.452-3.096l-.099-.715c-.115-.824.091.731-.012-.095-.069-.557-.144-1.114-.213-1.672q-.415-3.346-.741-6.7c-.419-4.315-.78-8.643-1.105-12.966a252 252 0 0 1-.439-7.218c-.119-2.576-.466-5.135-.704-7.702-.185-2.001-1.639-3.951-3.852-3.852-2.3.103-3.585 1.701-3.852 3.852ZM520.36 819.28c18.888-.673 36.66-12.728 45.152-29.5 2.443-4.824 4.048-9.902 5.065-15.2.501-2.608-.305-5.62-2.83-6.953-2.478-1.309-5.402-.978-7.461.963-6.185 5.829-10.439 14.764-9.808 23.411.667 9.137 6.483 16.997 15.407 19.58 7.995 2.314 16.405.045 23.739-3.294 7.52-3.423 13.968-8.924 19.99-14.49 7.709-7.125 14.193-15.129 20.487-23.497l-11.809-1.543c3.434 9.793 10.965 17.233 20.756 20.648 9.249 3.226 20.033 1.572 28.133-3.847 4.771-3.191 8.876-7.459 11.45-12.625h-12.005c4.324 9.071 15.395 12.639 24.804 12.069 5.58-.338 10.931-1.926 16.298-3.364 1.249-.335 2.5-.658 3.76-.946a60 60 0 0 1 1.888-.402c.245-.048 1.993-.557 2.168-.373-.004-.004-1.794.183-.254.048.274-.024.546-.053.82-.076q.96-.08 1.924-.099c1.507-.028 3.004.085 4.502.239.157.016 1.113.132.179.017-.996-.123.217.039.458.077q.98.154 1.96.325c1.399.242 2.796.498 4.199.72 3.14.497 6.331.961 9.518.86 6.174-.196 12.125-1.894 17.919-3.902 11.245-3.896 22.456-7.89 33.683-11.837 6.3-2.214 12.629-4.351 18.848-6.784 6.634-2.596 13.068-5.492 19.518-8.513 2.463-1.154 3.214-4.535 2.241-6.84-1.072-2.54-3.778-3.821-6.462-3.171-5.602 1.357-11.179 2.674-16.681 4.394s-10.936 3.595-16.375 5.507l-32.338 11.367c-5.25 1.845-10.498 3.898-15.96 5.037-.659.137-1.325.235-1.985.367-.84.168.426-.037.463-.052-.225.093-.616.069-.859.092a31 31 0 0 1-6.275-.03q-.422-.043-.844-.091c-1.45-.158.067.067.204.028-.408.114-1.258-.196-1.681-.266-.747-.124-1.493-.257-2.239-.388-3.132-.549-6.287-1.096-9.463-1.298-3.048-.194-6.057.143-9.066.623-5.207.831-10.193 2.612-15.311 3.83-.719.171-1.44.333-2.164.478-.564.113-1.561.078-2.03.363-.039.024 1.619-.183.864-.118-.339.029-.678.073-1.017.101a29 29 0 0 1-4.96-.019c-.206-.019-.411-.047-.617-.064-.858-.07 1.861.327.433.048-.536-.105-1.072-.201-1.603-.33a22 22 0 0 1-1.365-.377c-.27-.084-1.973-.757-.854-.259s-.489-.25-.767-.398c-.458-.245-.889-.523-1.33-.795-1.31-.805.981.952-.11-.075a34 34 0 0 1-1.086-1.074c-.12-.123-.235-.34-.376-.435 1.059.715.677 1.005.29.318-.291-.518-.602-1.014-.862-1.55-2.208-4.556-9.787-4.525-12.005 0a26 26 0 0 1-1.786 3.114q-.25.372-.515.734-.664.89.264-.337c.058.094-1.067 1.233-1.178 1.353-.821.88-1.711 1.667-2.62 2.454q-.865.693.335-.253a27 27 0 0 1-2.245 1.496c-.344.206-2.919 1.861-3.198 1.64q1.436-.6.396-.19-.42.158-.846.302-.851.287-1.719.517c-.868.23-1.162.286-1.749.398q-.44.084-.883.153 1.63-.204.491-.074c-1.2.084-2.385.156-3.589.101-.432-.02-1.375-.289-1.765-.147q1.632.23.507.05-.435-.076-.868-.168a26 26 0 0 1-4.223-1.285q1.42.614.41.165c-.53-.262-1.065-.509-1.585-.79a29 29 0 0 1-3.002-1.88 73 73 0 0 0-.716-.521q1.173.924.322.244c-.449-.386-.904-.762-1.337-1.166-.868-.807-1.644-1.683-2.426-2.571q-.668-.831.218.297a25 25 0 0 1-2.32-3.757c-.173-.346-.949-2.219-.247-.473-.988-2.459-2.597-4.255-5.371-4.628-2.673-.359-4.942.898-6.438 3.085-.602.881-1.244 1.728-1.884 2.582-1.033 1.379.533-.662-.128.169-.276.347-.548.698-.824 1.045a140.4 140.4 0 0 1-22.585 22.524c-.016.013-1.393 1.094-.582.462.752-.586-.389.295-.49.37q-.492.368-.992.722a50 50 0 0 1-8.286 4.75l-.196.088q-1.005.438.436-.176c-.3-.011-.906.363-1.194.471q-1.19.451-2.407.826c-1.458.449-2.93.766-4.425 1.058-1.461.286 1.699-.15.229-.024-.329.028-.656.063-.985.088-.838.064-1.678.097-2.519.076-.627-.016-1.258-.125-1.882-.134 1.984.029.967.134.352.007a17 17 0 0 1-1.07-.257c-.702-.194-2.227-1.108-.427-.041-.625-.371-1.308-.633-1.925-1.028-.6-.383-.896-1.02.172.2-.237-.271-.59-.493-.854-.742-.31-.292-.958-1.281-1.326-1.427l.544.701a14 14 0 0 1-.49-.721c-.231-.364-.417-.75-.639-1.117-.425-.703.264-.271.151.456.055-.354-.437-1.223-.539-1.593-.112-.406-.186-.818-.285-1.227-.342-1.412.071 1.573.012.113-.041-1.004-.082-1.99-.005-2.995.022-.284.079-.582.085-.865-.041 1.995.012.149.13-.39q.29-1.312.718-2.586c.144-.43.309-.85.463-1.276.457-1.265-.595 1.266.145-.292.427-.898.917-1.754 1.405-2.618.961-1.702 1.922-3.365 3.11-4.927l-11.474-3.108a50 50 0 0 1-.056 1.504l-.04.641c-.067 1.113.059-.166.051-.298.059.97-.386 2.239-.6 3.181a45 45 0 0 1-1.795 5.957c-.078.207-.637 1.601-.359.931.274-.66-.344.759-.418.918a48 48 0 0 1-1.356 2.697 50 50 0 0 1-4.213 6.497c.594-.775-.219.255-.419.497a51 51 0 0 1-2.148 2.437 50 50 0 0 1-4.555 4.289c-.172.142-1.227.972-.581.479q-.602.46-1.22.9a50 50 0 0 1-2.695 1.799 48 48 0 0 1-6.08 3.204c.419-.184.027-.008-.171.071q-.9.363-1.812.69-1.622.58-3.282 1.033c-1.66.453-2.223.561-3.349.774a39 39 0 0 1-1.696.286c-.458.066-.127.017-.031.005-.431.054-.863.096-1.295.138-2.071.199-3.852 1.628-3.852 3.852 0 2.03 1.763 3.927 3.852 3.852Zm87.646 13.326c21.889-.04 43.815-.264 65.664-1.64 21.848-1.376 43.719-3.005 65.478-5.432a1733 1733 0 0 0 27.491-3.289c3.509-.448 6.988-.743 10.329-1.96 2.671-.973 4.446-3.279 4.053-6.208s-2.712-4.672-5.557-4.906c-1.309-.108-2.612-.223-3.921-.078-1.474.164-2.943.392-4.413.585q-3.923.514-7.849 1.012a1744 1744 0 0 1-16.448 2.002c-10.898 1.273-21.794 2.57-32.702 3.745-21.665 2.334-43.383 4.143-65.079 6.153a1752 1752 0 0 1-37.046 3.034c-1.881.134-3.491 1.509-3.491 3.491 0 1.891 1.598 3.495 3.491 3.491"/><path fill="#d85bd2" d="M775.214 231.299c.457-.442.966-.595 1.524-.975a19 19 0 0 0 1.921-1.522 76 76 0 0 0 3.394-3.203c2.067-2.091 3.901-4.473 5.799-6.718 4.081-4.826 7.89-9.84 11.644-14.924 7.261-9.835 14.359-19.837 20.984-30.113a506 506 0 0 0 5.493-8.762c.862-1.399 1.749-2.789 2.574-4.211 1.056-1.821 1.664-3.689 2.178-5.716 1.064-4.196-4.029-7.067-7.143-4.158-1.298 1.212-2.443 2.389-3.455 3.864-.928 1.353-1.724 2.807-2.573 4.212a689 689 0 0 1-4.666 7.614c-3.226 5.186-6.41 10.396-9.707 15.537-6.506 10.145-13.542 19.917-20.192 29.96-1.893 2.859-3.856 5.672-5.745 8.532-.939 1.421-1.712 2.963-2.547 4.448a22 22 0 0 0-1.019 2.101c-.349.813-.45 1.583-.828 2.211-.889 1.48 1.142 3.006 2.363 1.823Z"/><path fill="#d85bd2" d="M755.474 186.255a462 462 0 0 1 39.156 14.071q2.353.968 4.703 1.946c1.448.603-1.147-.49.293.123l1.061.451q1.379.588 2.753 1.186a459 459 0 0 1 38.098 18.702c3.793 2.085 7.567 4.753 11.737 5.985 2.554.754 5.801-.476 7.069-2.877s1.119-5.662-.979-7.586c-2.907-2.666-6.564-4.304-10.034-6.112a461 461 0 0 0-28.358-13.566c-13.171-5.757-26.571-10.94-40.229-15.424a462 462 0 0 0-22.55-6.767c-2.58-.704-5.679.875-6.293 3.573-.632 2.775.835 5.446 3.573 6.293Z"/><path fill="#ff8345" d="M192.582 372.449c4.026-10.134 9.016-19.688 14.99-28.807a207 207 0 0 1 8.83-12.452l.43-.56q-.297.384-.007.011a220 220 0 0 1 10.522-12.503c7.397-8.156 15.083-15.989 23.392-23.225a255 255 0 0 1 9.493-7.874q.84-.662 1.683-1.32c.262-.204.954-.795-.211.162.365-.3.751-.576 1.127-.861a272 272 0 0 1 13.497-9.621c9.213-6.156 18.678-11.944 28.467-17.14a298 298 0 0 1 14.858-7.362c2.871-1.325 5.768-2.59 8.67-3.846.773-.334 1.544-.672 2.318-1.004.319-.137.75-.259 1.033-.44-.175.112-1.589.665-.289.122a372 372 0 0 1 4.671-1.916c24.394-9.801 49.832-16.825 75.604-21.914a567 567 0 0 1 19.405-3.474 629 629 0 0 1 14.502-2.167l1.118-.153c.282-.038 1.513-.202.374-.051l.654-.086 1.399-.183c13.59-1.762 27.302-2.816 40.81-5.145 3.135-.54 6.087-1.329 9.088-2.374 2.088-.727 3.906-2.629 3.8-4.991-.096-2.153-1.52-4.556-3.8-4.991-6.984-1.333-13.948-1.333-21.02-.851-6.566.448-13.1 1.043-19.637 1.806-13.846 1.616-27.66 3.571-41.382 6.031-26.237 4.705-52.191 11.282-77.17 20.642-22.72 8.514-44.799 19.313-64.791 33.137-18.736 12.956-36.008 28.355-50.697 45.776a124 124 0 0 0-3.275 4.02c.128-.166.641-.829 0 0l-1.141 1.477q-.711.925-1.415 1.857a222 222 0 0 0-4.93 6.807 212 212 0 0 0-8.819 13.774c-5.715 9.739-10.607 19.999-14.95 30.418a195 195 0 0 0-3.002 7.67c-.561 1.526.628 3.297 2.102 3.702 1.712.47 3.099-.585 3.702-2.102Zm-5.834 116.258c2.723.318 5.486-.595 8.113-1.285 2.711-.712 5.341-1.752 7.926-2.83 2.614-1.09 5.316-2.176 7.771-3.599 2.528-1.465 4.697-3.332 6.85-5.293.834-.76.855-2.154.179-3.003-.752-.944-1.886-1.081-2.951-.589-2.44 1.128-4.911 2.131-7.286 3.397-2.354 1.255-4.633 2.627-7.027 3.811-2.317 1.146-4.705 2.124-7.049 3.209-2.426 1.123-5.121 1.873-7.254 3.491-1.175.891-.744 2.52.729 2.692Zm14.673 46.813c7.38-1.729 14.538-4.462 21.218-8.044a83 83 0 0 0 9.323-5.823 75 75 0 0 0 4.759-3.754c1.668-1.421 3.258-2.759 4.343-4.694 1.943-3.465-1.919-7.208-5.353-5.353-1.806.976-3.156 2.42-4.678 3.773-1.344 1.195-2.735 2.337-4.132 3.469q-.483.39-.971.775c-.693.547.17-.114-.484.369-.782.578-1.562 1.156-2.359 1.714a84 84 0 0 1-4.35 2.848c-6.108 3.733-12.229 6.444-19.044 8.452-4.018 1.184-2.347 7.223 1.728 6.268m33.2 40.087a111 111 0 0 0 13.479-5.82c2.044-1.053 4.139-2.122 6.053-3.399 2.12-1.415 4.121-3.054 6.094-4.665 1.353-1.105 1.283-3.401.278-4.663-1.078-1.354-3.036-1.849-4.581-.915-1.981 1.198-4.034 2.252-6.04 3.402-1.884 1.08-3.724 2.221-5.642 3.243s-3.861 1.978-5.836 2.873-3.617 1.56-5.884 2.399c-1.914.708-3.422 2.682-2.733 4.813.613 1.895 2.749 3.469 4.813 2.733Zm115.661-141.322q.812-.013 1.618.09l-1.109-.149c.946.136 1.857.392 2.741.753l-1.055-.445c.994.423 1.915.971 2.772 1.627l-.95-.734q1.277 1.007 2.279 2.288l-.777-1.006a12.8 12.8 0 0 1 1.615 2.78l-.529-1.253c.298.736.568 1.507.79 2.269.109.375.176.754.263 1.133.279 1.216 1.031 2.001 1.755 2.936.916 1.182 2.72 1.526 4.095 1.341 1.501-.202 2.779-1.003 3.562-2.328.615-1.042 1.011-2.121.999-3.358-.007-.786-.194-1.68-.376-2.47a11.6 11.6 0 0 0-1.407-3.412c-1.308-2.146-2.994-3.8-4.993-5.283-3.527-2.614-8.095-3.507-12.366-2.699-.907.171-1.985 1.05-2.41 1.853-.43.815-.602 1.654-.479 2.571.26 1.938 1.942 3.529 3.961 3.497Zm148.584 3.565a11.5 11.5 0 0 1 2.252.071l-1.189-.16q1.47.212 2.844.781l-1.111-.469c1.148.492 2.293 1.128 3.288 1.884a3.5 3.5 0 0 0 1.746.557q.936.21 1.873-.084c.99-.32 1.8-.856 2.439-1.683.612-.792 1.054-1.817 1.008-2.845-.053-1.186-.436-2.521-1.375-3.321-.846-.719-1.788-1.526-2.81-2.011-1.038-.493-2.141-.927-3.268-1.172-2.318-.505-4.525-.508-6.848-.062-.976.187-2.132 1.125-2.59 1.992-.462.875-.647 1.778-.514 2.763.122.909.496 1.849 1.192 2.488.814.748 1.922 1.347 3.064 1.269Zm144.175 2.167a26 26 0 0 1 1.615-.298c-.644.098.135-.011.275-.025q.4-.04.8-.064a23 23 0 0 1 3.383.04c.274.023.546.055.819.083q.448.054-.35-.045.196.032.393.068.79.143 1.569.341c1.101.28 2.173.646 3.223 1.078l-1.125-.475c.809.345 1.565.722 2.437.851 1.246.184 2.51.248 3.632-.475.875-.564 1.522-1.29 1.928-2.254.853-2.02.185-4.849-1.928-5.885-.612-.3-1.227-.619-1.89-.784-.621-.154-1.401-.196-2.067-.252a23 23 0 0 0-1.875-.077c-1.619.001-3.224.2-4.822.448-2.834.44-5.576 1.424-8.102 2.774-1.19.636-1.611 2.191-1.108 3.382.539 1.278 1.858 1.857 3.195 1.568Z"/></svg>