<?xml version="1.0" encoding="UTF-8"?><svg xmlns="http://www.w3.org/2000/svg" data-name="ARTWORK" viewBox="0 0 1000 1000"><g fill="#8170f9"><path d="M646.544 125.712c-93.361-22.236-195.068-7.162-277.966 41.197-24.981 14.573-48.919 32.725-63.449 57.731-10.722 18.452-15.739 39.635-19.261 60.683a498.6 498.6 0 0 0-6.039 110.316c2.024 35.815 7.635 73.405-6.691 106.293-22.387 51.395-87.3 76.516-103.69 130.126-12.284 40.181 7.439 83.532 34.015 116.077 79.79 97.71 213.784 131.155 339.32 143.578 61.532 6.089 124.286 8.47 184.624-5.041 60.339-13.511 118.602-44.405 155.026-94.371s47.31-120.477 18.082-174.966c-8.666-16.155-20.451-30.526-28.521-46.986-41.798-85.259 27.78-188.314 4.968-280.486-11.927-48.191-48.809-87.655-92.552-111.132s-93.876-32.521-143.431-35.511"/><path d="M647.808 121.128c-21.232-5.935-42.986-10.696-64.948-12.666-21.671-1.943-43.353-1.929-65.013.128-44.584 4.234-88.095 16.571-128.527 35.803-38.062 18.104-77.869 43.076-97.024 82.18-10.513 21.462-15.135 45.037-18.472 68.529-3.606 25.388-5.506 50.964-5.317 76.613.175 23.601 2.974 47.053 3.442 70.634.419 21.078-1.305 42.178-11.334 61.044a112 112 0 0 1-6.554 10.773 148 148 0 0 1-3.546 4.922c-1.149 1.538.404-.446-.818 1.038-.754.916-1.493 1.844-2.254 2.754-5.615 6.712-11.745 12.967-18.067 19.01-12.497 11.946-25.748 23.105-37.754 35.562-12.613 13.087-23.494 27.59-30.337 44.519-8.093 20.023-8.361 42.31-3.422 63.145 9.715 40.982 38.247 76.252 68.979 103.879 29.144 26.199 62.847 46.881 98.654 62.641 36.59 16.105 74.922 27.659 114.003 35.929 40.797 8.634 82.299 13.926 123.837 17.368 49.67 4.116 99.796 4.741 149.066-3.749 41.406-7.135 82.14-21.531 117.455-44.547 34.614-22.559 64.516-53.596 81.464-91.623 16.909-37.941 22.689-81.276 11.695-121.737-2.775-10.214-6.697-20.19-11.53-29.604-5.184-10.099-11.67-19.438-17.837-28.944-3.115-4.802-6.16-9.655-8.916-14.675a131 131 0 0 1-3.611-7.057 141 141 0 0 1-1.441-3.161c-.536-1.211-.07-.145.027.088q-.438-1.058-.853-2.125c-3.483-8.91-5.924-18.206-7.434-27.649q-.131-.828-.256-1.656c-.013-.086-.263-1.911-.103-.691s-.069-.609-.079-.695q-.096-.833-.188-1.667a168 168 0 0 1-.623-7.258 191 191 0 0 1-.361-14.101c.097-9.59.847-19.164 1.986-28.683q.21-1.74.433-3.478c.174-1.36.011-.1-.023.148q.119-.873.244-1.744a467 467 0 0 1 1.232-8.16 642 642 0 0 1 2.529-14.644c1.808-9.848 3.791-19.662 5.737-29.483 7.918-39.955 15.461-80.926 8.201-121.573-7.115-39.839-30.699-75.48-61.33-101.35-34.117-28.814-76.067-46.008-119.546-54.897-11.538-2.359-23.184-4.128-34.869-5.58-11.121-1.382-22.252-1.803-33.424-2.49-5.975-.367-11.072 5.351-11.072 11.072 0 6.299 5.079 10.703 11.072 11.072 22.89 1.407 43.916 4.353 66.14 9.148 21.338 4.603 42.721 11.258 61.711 20.357 8.897 4.263 17.529 9.066 25.782 14.472 8.779 5.751 14.167 9.856 21.819 16.663 6.974 6.203 13.517 12.895 19.513 20.05 5.173 6.173 10.638 13.906 15.455 22.287 9.099 15.833 14.926 32.271 17.488 51.631-.312-2.36.147 1.421.159 1.529q.19 1.727.346 3.457.31 3.464.491 6.937a208 208 0 0 1 .218 15.123c-.195 9.421-.968 18.823-2.099 28.176q-.214 1.77-.445 3.539c.294-2.25-.229 1.629-.233 1.662a485 485 0 0 1-1.065 7.093 646 646 0 0 1-2.634 15.387c-1.732 9.486-3.625 18.941-5.496 28.4-3.884 19.639-7.628 39.327-9.749 59.25-2.077 19.502-2.123 39.076 1.216 58.446 3.491 20.252 11.766 38.836 22.81 56.065 5.937 9.262 12.291 18.275 17.59 27.931 4.984 9.083 7.63 15.587 10.536 25.757a146 146 0 0 1 3.801 17.176c-.047-.296.519 3.511.308 1.97s.27 2.281.236 1.982q.264 2.339.457 4.683c.81 9.817.699 19.706-.251 29.509-.452 4.669-.742 6.811-1.762 12.28a181 181 0 0 1-3.341 14.54 185 185 0 0 1-6.653 19.844c-.92 2.302-1.244 3.061-2.636 6.08a182 182 0 0 1-14.652 25.98c-5.403 7.964-10.011 13.646-16.897 21.073-26.032 28.079-60.089 48.625-95.306 61.441-42.698 15.539-87.518 20.861-132.712 21.015-24.104.082-48.193-1.275-72.2-3.354a1234 1234 0 0 1-31.242-3.094q-7-.785-13.991-1.664a614 614 0 0 1-13.344-1.789c-38.23-5.458-76.223-13.209-113.122-24.693a533 533 0 0 1-27.699-9.444 488 488 0 0 1-18.384-7.278c1.907.807-1.586-.688-1.559-.676a457 457 0 0 1-4.241-1.859c-17.142-7.622-33.811-16.338-49.705-26.312a342 342 0 0 1-26.217-18.188c1.628 1.253-1.321-1.041-1.305-1.028a318 318 0 0 1-5.321-4.295 309 309 0 0 1-11.215-9.711 298 298 0 0 1-19.504-19.433c-6.766-7.399-12.732-14.553-18.068-22.14-12.069-17.161-20.941-34.559-25.204-54.791-1.143-5.423-1.443-7.623-1.738-12.904-.275-4.918-.105-9.808.331-14.711.237-2.66 1.523-8.711 2.771-12.846a87 87 0 0 1 1.956-5.743c.088-.231 1.344-3.302.388-1.064a86 86 0 0 1 1.658-3.626 103 103 0 0 1 5.807-10.391 119 119 0 0 1 3.323-4.951q.864-1.22 1.755-2.422c.264-.356 2.046-2.641.712-.954 5.256-6.648 11.034-12.852 17.046-18.818 12.047-11.956 24.978-22.987 36.921-35.052 12.017-12.139 23.413-25.517 30.917-40.981 9.977-20.561 12.842-43.27 12.569-65.915-.28-23.252-3.178-46.382-3.566-69.637-.412-24.654.911-49.424 4.255-73.861 2.918-21.322 6.507-43.673 15.797-63.279 8.71-18.383 22.017-32.969 38.244-45.43 31.939-24.527 71.536-42.168 110.592-53.301 40.456-11.532 82.93-16.677 124.971-15.346 20.781.658 41.322 2.09 61.771 6.056 5.94 1.152 8.492-7.5 2.527-9.167Z"/></g><g fill="#70e8a0"><path d="M863.004 626.103c-3.393-22.952-4.224-46.803 2.652-68.962 4.843-15.609 13.997-30.318 26.573-40.51 6.956-5.638 17.112-.044 15.888 8.826-4.654 33.738-18.016 66.275-38.587 93.43 21.827-15.458 47.962-24.765 74.647-26.582 9.179-.625 19.015-.232 26.077 6.541 3.501 3.357 5.458 8.32 4.505 13.077-1.809 9.026-11.415 11.779-19.713 13.276a466 466 0 0 1-82.96 7.392c18.676 6.116 37.637 12.371 53.847 23.479 16.211 11.109 29.585 27.94 31.881 47.457-19.157 1.696-38.177-6.187-53.515-17.79s-27.563-26.746-39.623-41.727c12.857 31.003 17.22 65.481 12.489 98.709-.888 6.241-2.849 13.496-10.125 14.399-5.921.734-11.526-3.331-13.346-9.013-11.056-34.508-10.728-72.509.756-106.859-12.169 23.755-31.042 44.043-53.94 57.782-6.893 4.136-16.042 3.59-21.517-2.296-9.497-10.21 2.428-25.309 13.802-32.748a283 283 0 0 1 70.856-33.374c-17.76 6.359-36.111 12.825-55.47 7.514-8.356-2.292-15.745-7.525-20.481-14.78-2.696-4.13-4.86-9.553-.242-14.29 3.307-3.392 8.326-4.637 12.984-3.776 24.849 4.592 48.275 16.511 66.67 33.826-35.251-12.432-58.569-50.793-56.145-87.687.706-10.736 14.2-15.64 21.039-7.334 4.664 5.664 8.093 12.964 10.454 19.885a204.5 204.5 0 0 1 10.525 78.402"/><path d="M867.156 626.103c-1.094-8.666-1.828-17.384-1.926-26.122-.049-4.365.06-8.734.363-13.089q.225-3.26.602-6.506c.063-.541.134-1.08.199-1.62.098-.818-.119.797.002-.015q.05-.344.098-.689.234-1.607.509-3.206c.75-4.352 1.763-8.649 2.971-12.895a98 98 0 0 1 1.857-5.849 91 91 0 0 1 1.441-3.808l.231-.567c.4-.988-.296.667-.012.025 1.543-3.488 3.223-6.897 5.161-10.184a87 87 0 0 1 4.586-6.987q.42-.576.849-1.144c.121-.16.26-.317.369-.486-.762 1.172-.254.334-.038.062a77 77 0 0 1 7.654-8.322 72 72 0 0 1 3.631-3.182c.149-.122.9-.705.146-.135s.253-.16.476-.297c.267-.164.548-.297.818-.453.808-.467-1.375.437-.191.093.377-.109.749-.21 1.131-.302 1.213-.293-1.332.055-.337.045.33-.003.657-.025.988-.013.28.011 1.335.135.165-.02-1.221-.161.118.059.414.139.148.04.895.183.921.299.021.092-1.323-.635-.827-.349.158.091.332.159.494.245q.366.193.713.417c.154.099.299.217.455.311.544.325-1.019-.921-.596-.45.212.236.48.433.701.664.189.198.96 1.153.232.223-.692-.884-.075-.053.066.181.144.238.725 1.492.265.389-.462-1.108.002.068.08.337.096.329.137.675.233 1.001.188.637-.222-1.022-.119-.912.05.054.04.593.041.611.013.369-.008.734-.022 1.103-.05 1.4.209-1.243.008-.003-.08.494-.153.989-.232 1.483a200 200 0 0 1-4.471 20.752 202 202 0 0 1-8.157 23.981c-.083.201-.757 1.811-.321.779.413-.975-.209.485-.332.771q-.34.787-.686 1.572a202 202 0 0 1-2.508 5.456 210 210 0 0 1-5.49 10.686 198 198 0 0 1-12.842 20.313 199 199 0 0 1-3.594 4.824c-.938 1.222-1.045 3.151-.853 4.581.203 1.508.822 3.066 1.976 4.126 2.229 2.046 6.036 2.98 8.707 1.123a148 148 0 0 1 26.785-14.741l-1.771.747c12.34-5.178 25.341-8.664 38.6-10.461l-2.033.273c7.029-.932 14.319-1.691 21.387-.757l-2.037-.274c2.516.359 4.971.963 7.326 1.927l-1.831-.773a23.7 23.7 0 0 1 4.979 2.871l-1.552-1.199c1.258.983 2.402 2.065 3.395 3.318l-1.2-1.553a17.3 17.3 0 0 1 1.987 3.359l-.774-1.833c.502 1.203.854 2.43 1.051 3.718l-.274-2.041c.144 1.164.151 2.312.013 3.476l.274-2.042a14.5 14.5 0 0 1-.899 3.297l.774-1.835a13.6 13.6 0 0 1-1.721 2.911l1.201-1.555a15.5 15.5 0 0 1-2.359 2.334l1.556-1.202c-1.492 1.152-3.136 2.044-4.868 2.78l1.837-.775c-6.185 2.546-13.121 3.342-19.681 4.345l2.048-.275a466 466 0 0 1-57.1 4.107q-8.095.08-16.186-.118c-4.715-.114-8.692 3.691-9.299 8.21-.652 4.849 2.282 8.795 6.782 10.388q2.322.822 4.642 1.648l-2.29-.966c4.786 2.086 9.872 3.519 14.788 5.28a253 253 0 0 1 12.727 4.922l-2.301-.971c9.875 4.178 19.466 9.177 27.997 15.717l-1.952-1.508c5.638 4.361 10.764 9.355 15.14 14.987l-1.509-1.953c3.512 4.567 6.492 9.512 8.742 14.821l-.973-2.306c1.861 4.473 3.171 9.137 3.826 13.94l-.345-2.567q.051.381.096.764l9.657-9.657c-4.523.383-9.053.252-13.553-.334l2.568.345c-6.628-.906-13.063-2.778-19.226-5.364l2.309.974c-7.806-3.322-15.078-7.737-21.788-12.916l1.958 1.512c-14.899-11.585-26.762-26.337-38.558-40.926l-1.96-1.514a7.2 7.2 0 0 0-3.601-1.149c-2.064-.277-4.371-.014-6.175 1.149a11.6 11.6 0 0 0-3.474 3.474c-1.172 1.819-1.835 5.396-.976 7.462 6.302 15.157 10.584 31.099 12.795 47.362l-.342-2.546c2.233 16.721 2.269 33.694.03 50.416l.338-2.518c-.393 2.884-.887 5.757-1.984 8.469l.953-2.258c-.509 1.2-1.129 2.335-1.913 3.379l1.473-1.906c-.55.693-1.16 1.307-1.86 1.849l1.895-1.464c-.578.417-1.175.761-1.826 1.053l2.226-.939c-.826.338-1.665.562-2.546.703l2.463-.331c-1.054.136-2.092.14-3.146.014l2.446.329a13.3 13.3 0 0 1-2.98-.812l2.182.921a14.2 14.2 0 0 1-2.967-1.737l1.835 1.417a14.8 14.8 0 0 1-2.439-2.472l1.406 1.82a15 15 0 0 1-1.605-2.73l.9 2.133c-1.977-4.693-3.157-9.824-4.292-14.774a173 173 0 0 1-2.795-15.423l.313 2.329a175.8 175.8 0 0 1-.003-46.23l-.311 2.318a173.5 173.5 0 0 1 7.246-31.401c1.364-4.112-1.25-8.655-5.031-10.25s-8.868-.31-10.85 3.555a145.4 145.4 0 0 1-14.283 22.497l1.355-1.754a146.6 146.6 0 0 1-25.953 25.947l1.754-1.355a145 145 0 0 1-7.876 5.668c-2.583 1.728-5.217 3.582-8.069 4.839l2.07-.873a20.2 20.2 0 0 1-4.811 1.348l2.303-.31c-1.64.215-3.269.229-4.911.027l2.303.31a18 18 0 0 1-4.353-1.19l2.07.873a16.8 16.8 0 0 1-3.32-1.944l1.754 1.355a16.4 16.4 0 0 1-2.766-2.766l1.355 1.754a14.2 14.2 0 0 1-1.642-2.811l.873 2.068a13 13 0 0 1-.811-2.962l.309 2.297a14.7 14.7 0 0 1 .012-3.689l-.308 2.293c.236-1.625.697-3.179 1.316-4.698l-.867 2.055c1.075-2.533 2.537-4.857 4.212-7.035l-1.339 1.733c2.483-3.167 5.377-5.977 8.549-8.451l-1.722 1.33c3.348-2.572 6.999-4.776 10.591-6.987a283 283 0 0 1 11.971-6.967c8.026-4.412 16.313-8.353 24.746-11.923l-2.005.846c8.646-3.644 17.466-6.902 26.446-9.626l-4.493-16.297c-10.135 3.543-20.357 7.073-31.037 8.537l2.311-.31c-5.795.76-11.655.855-17.459.112l2.329.313c-4.038-.552-8.027-1.473-11.795-3.047l2.08.878a37.7 37.7 0 0 1-7.953-4.639l1.755 1.356a36.5 36.5 0 0 1-6.264-6.213l1.349 1.747c-1.412-1.832-2.686-3.773-3.593-5.908l.867 2.054c-.392-.983-.69-1.98-.858-3.025l.307 2.283a10.4 10.4 0 0 1-.033-2.421l-.306 2.28a9.6 9.6 0 0 1 .548-2.08l-.864 2.046c.322-.736.714-1.402 1.187-2.051l-1.338 1.732a13.6 13.6 0 0 1 2.289-2.268l-1.729 1.336a15 15 0 0 1 2.94-1.686l-2.037.86a16.3 16.3 0 0 1 3.649-.988l-2.262.304a17.2 17.2 0 0 1 4.195-.014l-2.258-.303c9.503 1.358 19.029 4.412 27.861 8.113l-1.998-.843a135.4 135.4 0 0 1 29.782 17.342l-1.693-1.308a135 135 0 0 1 9.82 8.368l8.138-13.979a81 81 0 0 1-4.33-1.681l1.998.843c-6.211-2.655-12.031-6.117-17.376-10.244l1.693 1.308c-5.803-4.52-10.984-9.773-15.49-15.583l1.308 1.693a94 94 0 0 1-12.02-20.606l.843 1.998c-3.085-7.345-5.235-15.052-6.326-22.946l.299 2.223c-.766-5.718-1.23-11.793-.51-17.541l-.299 2.223c.159-1.066.433-2.088.838-3.087l-.843 1.997c.407-.939.909-1.809 1.52-2.63l-1.307 1.692a13.4 13.4 0 0 1 2.275-2.285l-1.691 1.306a13.7 13.7 0 0 1 2.745-1.61l-1.995.842a13.4 13.4 0 0 1 3.296-.904l-2.219.298a12.7 12.7 0 0 1 3.148.015l-2.218-.298c.975.15 1.907.411 2.818.79l-1.993-.841a12.2 12.2 0 0 1 2.385 1.408l-1.688-1.304c1.047.83 1.889 1.808 2.711 2.857l-1.303-1.687c3.109 4.051 5.53 8.56 7.531 13.247l-.839-1.987c2.931 6.973 5.054 14.333 6.903 21.658a207 207 0 0 1 4.407 22.882l-.295-2.198c.87 6.539 1.438 13.115 1.681 19.707s.508 13.21.109 19.775c-.25 4.123 3.804 8.065 7.882 7.882 4.485-.201 7.614-3.465 7.882-7.882q.043-.705.082-1.411l-.282 2.095c1.501-10.431 1.058-21.277.116-31.74-.946-10.503-2.59-20.971-5.031-31.231-2.364-9.937-5.279-19.912-9.69-29.15-2.217-4.643-4.981-9.088-8.362-12.98-3.308-3.808-7.925-5.676-12.809-6.281-8.05-.997-16.792 4.073-20.157 11.396-1.264 2.75-1.871 5.162-2.121 8.196-.154 1.873-.189 3.764-.184 5.643.01 4.109.377 8.181.924 12.25 2.136 15.893 8.221 31.368 17.631 44.377 9.487 13.116 21.977 24.32 36.92 30.83 2.301 1.002 4.617 1.966 6.982 2.806 1.731.615 3.825.262 5.446-.422 1.607-.678 3.162-1.836 3.999-3.422 1.703-3.223 1.471-7.529-1.308-10.135-12.988-12.185-28.01-21.574-44.446-28.341l1.998.843c-9.415-4.066-19.566-7.505-29.766-8.876-6.248-.84-12.391.634-17.401 4.504-3.047 2.354-5.221 5.372-6.475 9.02-1.053 3.065-.895 6.631-.126 9.736 1.296 5.231 4.755 10.032 8.339 13.938 3.32 3.619 7.435 6.743 11.805 8.982 10.052 5.153 21.849 6.687 33.001 5.432 12.493-1.406 24.198-5.367 35.943-9.67 2.104-.771 3.887-1.895 5.05-3.884 1.06-1.811 1.509-4.481.852-6.512-1.363-4.212-5.886-7.344-10.395-5.902-16.553 5.292-32.705 11.862-48.132 19.877-7.459 3.875-14.779 7.998-21.892 12.481-3.546 2.235-6.976 4.6-10.148 7.355-3.087 2.68-5.722 5.732-8.148 9.017-4.705 6.37-7.675 14.91-5.388 22.781 1.454 5.005 4.68 8.864 8.782 11.935 3.663 2.742 8.089 3.917 12.567 4.378 8.549.878 15.889-3.529 22.65-8.136 6.671-4.546 13.039-9.605 18.936-15.12a153.5 153.5 0 0 0 28.636-36.414 147 147 0 0 0 2.685-4.983l-15.881-6.695c-5.683 17.023-8.716 35.016-9.147 52.953-.431 17.915 1.817 36.086 6.719 53.328.561 1.973.994 3.998 1.685 5.933 1.076 3.013 2.437 5.321 4.448 7.784 2.82 3.452 7.277 6.187 11.671 7.004 5.099.948 10.754.468 15.081-2.66 4.216-3.048 6.783-7.026 8.417-11.936 1.28-3.847 1.644-8.017 2.145-12.01.54-4.295.929-8.608 1.168-12.93.483-8.718.357-17.469-.368-26.17-1.502-18.034-5.23-35.889-11.549-52.86q-1.115-2.987-2.328-5.936l-16.186 9.422c9.658 12.049 19.448 24.14 30.941 34.512 12.211 11.021 26.266 20.118 42.141 24.822 8.635 2.559 17.913 3.757 26.903 2.992 2.487-.212 5.061-.903 6.829-2.829 1.61-1.754 3.13-4.349 2.829-6.829-.531-4.36-1.248-8.63-2.612-12.812a74 74 0 0 0-5.01-11.756c-3.717-6.995-8.714-13.439-14.283-19.055-12.32-12.424-27.829-20.592-43.9-27.071-8.86-3.572-17.922-6.619-27.064-9.372l-2.517 18.598c18.433-.438 36.789-2.023 55.051-4.537 8.81-1.213 17.57-2.746 26.332-4.261 6.609-1.142 13.67-2.36 19.338-6.207 3.211-2.179 6.141-4.996 7.755-8.584 2.102-4.672 2.738-9.733 1.314-14.728-2.562-8.987-10.51-15.219-19.243-17.716-7.497-2.143-15.518-1.754-23.183-.971-8.339.851-16.604 2.272-24.692 4.48-15.555 4.247-30.593 10.962-44.056 19.843a150 150 0 0 0-4.797 3.306l9.83 9.83c10.38-13.948 18.727-29.181 25.259-45.28a202.2 202.2 0 0 0 12.986-48.836c.361-2.663.593-4.9.122-7.568a13.9 13.9 0 0 0-2.021-5.076c-2.219-3.404-5.657-6.055-9.652-6.999-4.033-.952-8.35-.398-11.925 1.747-3.508 2.105-6.626 5.384-9.398 8.363-11.621 12.487-19.505 28.481-22.879 45.166-3.774 18.667-2.974 37.742-.274 56.49.322 2.233.674 4.462 1.048 6.687.341 2.03 2.7 3.223 4.555 2.974 1.833-.246 3.859-2.028 3.6-4.078Z"/></g><g fill="#ff8345"><path d="M183.536 345.97A745 745 0 0 1 80.807 194.262a725 725 0 0 1 130.701 95.477 4137 4137 0 0 0-11.587-186.315l66.201 177.753c36.89-54.032 73.983-108.317 118.886-155.9a1024 1024 0 0 1-54.838 183.735c66.218-7.807 132.785-15.627 199.394-12.652l-172.458 82.296a3679 3679 0 0 1 157.067 44.967c13.746 4.268 28.145 9.038 37.819 19.696a1416.4 1416.4 0 0 1-209.538 8.867c52.594 41.944 98.033 92.836 133.773 149.828-74.621-13.392-132.66-71.528-202.555-100.895a610.8 610.8 0 0 1-107.338 124.446 820.8 820.8 0 0 1 45.838-170.863 4104 4104 0 0 1-160.218 71.415 2284 2284 0 0 0 132.557-108.022 211 211 0 0 1-68.692-4.15c-30.305-6.921-59.762-20.63-90.818-19.304 35.609.78 70.404-9.623 104.5-19.924l84.03-25.388"/><path d="M185.578 343.928c-14.934-18.366-28.724-37.52-42.069-57.048a745 745 0 0 1-37.412-60.817c-6.475-11.753-12.638-23.684-18.701-35.652l-10.441 10.441c36.161 20.856 70.559 44.711 102.258 71.375 9.003 7.573 17.806 15.379 26.452 23.356 5.026 4.637 14.38 1.615 14.106-5.843-1.784-48.56-4.415-97.081-8.018-145.541a4179 4179 0 0 0-3.234-40.774l-16.89 2.286 51.405 138.276 14.687 39.507c2.667 7.175 11.537 8.494 15.921 2.081 14.341-20.978 28.686-41.956 43.522-62.588 14.947-20.788 29.312-39.814 45.623-59.343 9.173-10.982 18.647-21.709 28.468-32.116l-14.77-8.598c-9.811 49.039-23.176 97.354-40.019 144.445a1035 1035 0 0 1-14.956 39.253c-2.043 5.054 3.234 12.001 8.658 11.366 51.653-6.051 103.412-12.077 155.462-13.056 14.651-.276 29.295-.099 43.932.612l-4.637-17.119a37663 37663 0 0 0-134.773 63.836l-37.918 18.06c-3.434 1.635-5.077 6.116-4.607 9.614.5 3.718 3.192 7.042 6.912 8.022 53.741 14.153 107.314 29.255 160.278 46.102 2.991.951 5.972 1.936 8.916 3.024q.803.296 1.603.603c.279.107 3.035 1.208 2.001.781-1.335-.551 1.223.544 1.175.522q1.16.523 2.302 1.081c2.768 1.352 5.459 2.871 8.003 4.61.689.471 1.372.954 2.034 1.462-1.354-1.04.119.146.609.575a48 48 0 0 1 3.599 3.529l6.931-16.732a1458 1458 0 0 1-163.594 9.674c-15.317.042-30.634-.169-45.945-.619-3.816-.112-7.35 2.508-8.785 5.909-1.358 3.218-.982 8.139 1.988 10.501 20.496 16.301 39.917 33.915 58.083 52.78a600 600 0 0 1 38.427 44c.944 1.194 1.88 2.394 2.819 3.592 1.851 2.362-1.072-1.407.755.973l1.388 1.813a596 596 0 0 1 6.026 8.037c8.756 11.886 17.07 24.102 24.978 36.567l10.587-13.771c-14.366-2.547-28.367-6.752-41.909-12.16a259 259 0 0 1-2.307-.934c-.384-.158-.766-.319-1.151-.475.343.139 1.533.669-.112-.038a247 247 0 0 1-4.938-2.195 320 320 0 0 1-9.777-4.664c-6.629-3.297-13.152-6.805-19.596-10.45-25.876-14.634-50.462-31.406-76.132-46.385-14.359-8.379-29.07-16.163-44.378-22.675-4.874-2.073-9.788-1.324-12.868 3.374a617 617 0 0 1-18.133 26.182 604 604 0 0 1-8.146 10.872c-.3.391-1.302 1.688-.509.664a608 608 0 0 1-9.916 12.451 624 624 0 0 1-43.093 47.483c-8.527 8.474-17.313 16.68-26.313 24.649l16.292 9.484c7.096-45.522 17.984-90.432 32.583-134.131a816 816 0 0 1 13.261-36.731c1.391-3.584-.701-8.094-3.496-10.253-3.28-2.534-7.186-2.479-10.833-.763a4119 4119 0 0 1-141.268 63.275q-4.274 1.817-8.549 3.63l-4.751 2.012-1.901.803-1.448.61 7.597 18.02c36.062-27.251 71.367-55.499 105.787-84.798a2320 2320 0 0 0 28.693-24.837c2.914-2.564 3.442-7.284 2.018-10.66-1.38-3.27-5.112-6.388-8.918-5.999-10.794 1.105-21.649 1.416-32.486.854a212 212 0 0 1-16.196-1.463c1.49.193-.203-.031-.423-.064-.67-.1-1.341-.196-2.011-.299a210 210 0 0 1-12.492-2.311c-20.195-4.373-39.553-11.866-59.709-16.391-11.843-2.659-24.037-4.357-36.193-3.869-5.14.206-10.092 4.382-9.847 9.847.242 5.408 4.326 9.755 9.847 9.847 25.57.424 50.935-4.585 75.509-11.266 24.682-6.711 49.065-14.593 73.529-22.048 13.996-4.265 27.982-8.563 41.987-12.794 4.695-1.419 8.144-6.64 6.556-11.547-1.535-4.742-6.513-8.077-11.547-6.556-24.674 7.455-49.384 14.793-74.075 22.19-23.642 7.082-47.286 14.543-71.609 18.959-3.464.629-6.939 1.167-10.421 1.683-1.883.279 2.309-.267-.884.114-.996.119-1.991.243-2.988.355q-2.492.279-4.989.501c-7.007.62-14.036.865-21.069.716v19.694c5.089-.18 10.181-.011 15.249.489q1.893.186 3.779.43c-1.731-.225-.106-.009.207.041.627.101 1.255.192 1.882.294 2.512.408 5.013.881 7.504 1.404 10.225 2.148 20.248 5.129 30.249 8.127 20.912 6.269 41.722 11.598 63.59 13.163 12.342.884 24.743.663 37.052-.582l-6.9-16.658a2294 2294 0 0 1-109.3 90.137l-.41.317-2.004 1.545q-1.804 1.389-3.611 2.775-7.63 5.849-15.307 11.635c-3.967 2.991-6.096 7.426-4.034 12.312 1.709 4.051 7.092 7.614 11.631 5.709a4038 4038 0 0 0 126.988-55.919 4150 4150 0 0 0 35.532-16.581l-14.329-11.015c-16.613 42.977-29.687 87.286-38.922 132.43a829 829 0 0 0-6.91 38.435c-.651 4.176.39 8.848 4.48 11.008 4.008 2.118 8.444 1.459 11.813-1.524 32.669-28.925 62.006-61.378 87.839-96.531a615 615 0 0 0 20.728-30.06l-10.621 4.322c-1.47-.615.344.146.857.367q1.355.583 2.703 1.182a311 311 0 0 1 4.987 2.27 344 344 0 0 1 10.245 4.987c6.546 3.317 12.994 6.825 19.371 10.456 13.063 7.438 25.825 15.388 38.579 23.338 25.032 15.603 50.133 31.072 77.238 42.864 15.64 6.804 31.789 12.271 48.582 15.401 3.798.708 7.403-.187 9.854-3.359 2.234-2.892 2.726-7.207.733-10.412-28.086-45.153-62.436-86.321-101.238-122.638-10.887-10.19-22.203-19.925-33.833-29.255l-6.797 16.41c54.631 1.836 109.35.575 163.818-4.049a1432 1432 0 0 0 45.72-4.629c4.011-.471 7.296-2.088 8.957-6.025 1.56-3.696.693-7.775-2.027-10.707-8.725-9.406-20.484-14.868-32.409-19.027-12.708-4.433-25.722-8.093-38.609-11.968a3680 3680 0 0 0-128.234-36.042l2.305 17.636c44.83-21.433 89.678-42.826 134.422-64.437l37.803-18.259c3.488-1.685 5.394-6.752 4.222-10.374-1.284-3.969-4.666-6.58-8.858-6.744-52.039-2.034-103.974 2.074-155.664 7.79-14.586 1.613-29.158 3.341-43.73 5.069l8.658 11.366c18.672-46.393 33.975-94.127 45.697-142.745a1035 1035 0 0 0 9.005-41.028c.741-3.735-.453-8.073-4.061-9.98-3.408-1.801-7.95-1.551-10.709 1.382-35.435 37.664-66.144 79.456-95.566 121.89-8.259 11.911-16.426 23.886-24.592 35.862l15.921 2.081-51.574-138.229-14.735-39.494c-1.511-4.05-4.958-6.761-9.434-6.159-3.92.527-7.82 4.172-7.455 8.445 4.133 48.422 7.438 96.921 9.983 145.451a4189 4189 0 0 1 1.94 40.864l14.106-5.843c-31.501-28.72-65.619-54.731-101.609-77.571a734 734 0 0 0-31.083-18.653c-6.849-3.886-13.883 3.765-10.441 10.441 21.965 42.605 49.478 82.892 80.305 119.555a748 748 0 0 0 26.971 30.344c2.592 2.764 6.382-1.259 4.085-4.085Z"/></g><g fill="#ff8345"><path d="m730.698 223.04-36.756-15.153c-28.61-11.795-57.782-23.731-88.616-26.358-2.36-.201-4.946-.443-6.621-2.118-1.027-1.027-1.547-2.455-1.874-3.871-2.644-11.449 5.578-22.597 14.735-29.961 21.296-17.127 51.677-23.589 77.048-13.432s43.405 38.045 39.196 65.047c-1.152 7.39-3.913 14.679-8.87 20.28"/><path d="M732.732 219.559c-8.336-3.928-16.517-8.201-24.896-12.033-8.043-3.678-16.074-7.384-24.148-10.996-16.278-7.281-32.815-13.967-50.09-18.513a190 190 0 0 0-14.253-3.188c-5.281-.962-10.595-1.445-15.91-2.135l2.297.309c-1-.148-1.963-.361-2.904-.74l2.068.873a8 8 0 0 1-1.261-.726l1.754 1.355a6.7 6.7 0 0 1-1.064-1.087l1.356 1.756a9 9 0 0 1-.76-1.378l.875 2.074c-.436-1.119-.69-2.278-.87-3.463l.311 2.313a21.5 21.5 0 0 1-.02-5.399l-.312 2.321c.303-2.188.912-4.292 1.755-6.331l-.884 2.095c1.171-2.724 2.716-5.239 4.505-7.599l-1.379 1.784c2.919-3.775 6.376-7.066 10.137-9.99l-1.789 1.382a84.8 84.8 0 0 1 18.555-10.823l-2.108.89c6.742-2.83 13.81-4.796 21.053-5.8l-2.343.315c6.675-.892 13.429-.954 20.109-.08l-2.339-.314c5.874.801 11.626 2.315 17.099 4.601l-2.099-.886c4.888 2.077 9.468 4.779 13.686 8.003l-1.776-1.373a67.7 67.7 0 0 1 12.01 11.986l-1.371-1.774a66.4 66.4 0 0 1 8.537 14.566l-.883-2.092c2.02 4.839 3.435 9.897 4.139 15.095l-.312-2.325c.595 4.617.617 9.273.018 13.89l.312-2.323c-.559 4.081-1.575 8.076-3.156 11.884l.88-2.085c-.761 1.78-1.63 3.509-2.652 5.154-.838 1.348-1.6 2.635-1.969 4.224a41 41 0 0 1-.665 2.578c-.837 2.774.364 5.872 2.588 7.59 2.444 1.888 5.302 1.813 8.019.565.932-.428 1.877-.874 2.75-1.416 2.026-1.257 3.358-3.094 4.563-5.084 1.468-2.422 2.592-5.026 3.638-7.653 1.853-4.653 2.74-9.547 3.3-14.505.921-8.159-.094-16.697-2.494-24.53-5.085-16.596-16.233-31.005-30.741-40.46-14.607-9.52-33.018-13.089-50.224-10.983-4.798.587-9.539 1.385-14.2 2.677s-9.127 3.026-13.537 4.967a86.4 86.4 0 0 0-22.64 14.567 55 55 0 0 0-9.572 11.223c-2.574 4.003-4.606 8.639-5.311 13.367-.989 6.632-.476 13.694 3.944 19.067 4.185 5.088 11.028 4.935 16.977 5.554 2.461.256 4.921.509 7.375.833l-2.25-.302c15.407 2.075 30.446 6.182 45.156 11.141 14.81 4.993 29.476 10.335 44.141 15.74 8.652 3.189 17.478 5.925 26.168 9.016 1.891.673 4.028-.61 4.756-2.334.72-1.707.17-4.177-1.649-5.034Z"/></g><g fill="#70e8a0"><path d="M432.885 746.932c-9.63 11.034-14.083 26.407-11.839 40.879s11.14 27.776 23.659 35.377c8.262 5.017 17.788 7.554 27.299 9.28 13.08 2.373 27.61 3.036 38.594-4.452 8.665-5.907 13.571-15.876 17.28-25.686 3.806-10.066 6.637-21.797 1.415-31.206-4.111-7.407-12.24-11.514-20.016-14.872-18.015-7.78-38.402-13.928-57.003-7.675"/><path d="M429.779 743.826a50 50 0 0 0-2.38 2.718 59 59 0 0 0-1.708 2.191c-.1.136-.529.707-.006.022-.406.531-.824 1.052-1.229 1.583a52 52 0 0 0-4.195 6.396c-2.537 4.584-4.725 9.702-5.639 14.883-.967 5.484-1.313 11.033-.634 16.57.342 2.792.758 5.554 1.543 8.257.817 2.813 1.912 5.53 3.102 8.204 4.313 9.696 11.547 17.963 20.237 23.981 9.482 6.567 20.981 9.741 32.214 11.705 10.968 1.918 22.7 2.894 33.478-.603 5.753-1.867 10.935-4.835 15.389-8.934 4.028-3.707 7.315-8.354 9.922-13.149s4.724-9.955 6.574-15.11c2.004-5.584 3.406-11.36 3.812-17.296.422-6.169-.782-12.429-3.667-17.909-2.801-5.322-7.414-9.53-12.325-12.87-4.065-2.764-8.568-4.876-13.068-6.824-5.79-2.507-11.645-4.873-17.682-6.724-11.939-3.66-24.682-5.459-37.026-2.948-1.626.331-3.216.707-4.746 1.353-2.708 1.143-4.167 3.247-5.811 5.551-1.331 1.864-1.211 4.539-.37 6.533.908 2.151 2.539 3.529 4.757 4.25.599.195 1.19.41 1.785.616 2.067.717 4.151.551 6.244.076a53 53 0 0 1 4.576-.82l-2.46.331a70.6 70.6 0 0 1 18.089.033l-2.429-.326c11.441 1.564 22.382 5.495 32.976 9.965l-2.066-.872c4.17 1.775 8.263 3.779 11.881 6.536l-1.689-1.305c1.703 1.33 3.251 2.796 4.574 4.508l-1.288-1.667a23 23 0 0 1 2.743 4.755l-.829-1.964a25 25 0 0 1 1.556 5.811l-.293-2.181c.389 2.994.296 5.995-.099 8.983l.292-2.175c-.933 6.569-3.187 12.896-5.755 18.987l.819-1.941c-2.016 4.729-4.386 9.312-7.502 13.417l1.263-1.635c-1.91 2.468-4.067 4.705-6.536 6.617l1.63-1.259a32.7 32.7 0 0 1-6.843 3.954l1.919-.81c-3.183 1.321-6.513 2.155-9.923 2.63l2.127-.286c-5.94.777-11.941.488-17.865-.286l2.114.284c-8.808-1.186-17.596-3.147-25.822-6.563l1.877.792c-4.21-1.784-8.184-4.015-11.811-6.803l1.556 1.202a52 52 0 0 1-7.199-6.811 67 67 0 0 1-1.581-1.909q-.536-.681.593.769a51 51 0 0 1-1.128-1.544q-1.43-2.033-2.659-4.193c-1.229-2.16-1.567-2.913-2.241-4.422-.219-.49-.619-1.788.14.357-.127-.359-.287-.709-.425-1.065a51 51 0 0 1-.896-2.519c-1.039-3.188-1.839-6.449-2.292-9.773l.25 1.861a51 51 0 0 1-.302-10.049c.056-.801.139-1.598.225-2.396q.103-.83-.014.069l.17-1.261c.041-.396.074-.792.119-1.187q.045-.395.096-.788l-.115.876c.164-.285.131-.859.189-1.201a52.6 52.6 0 0 1 1.821-7.418 52 52 0 0 1 .794-2.257q.214-.557.436-1.11c.495-1.246-.45.979.115-.261.667-1.465 1.345-2.939 2.19-4.312.42-.683.873-1.349 1.333-2.006a48 48 0 0 1 1.184-1.617q-.421.549.055-.056c1.431-1.792 1.881-4.485 0-6.212-1.706-1.566-4.534-1.791-6.212 0Z"/></g><path d="M590.056 184.564c-41.787-2.984-83.691 4.329-121.389 22.762-38.328 18.741-71.045 47.708-94.877 83.056-23.917 35.475-37.428 76.617-47.121 117.963-10.249 43.719-16.616 88.294-27.917 131.776-1.324 5.094-2.756 10.164-4.44 15.153-.842 2.494-1.814 4.931-2.729 7.397-.472 1.271.104-.22.181-.399q-.414.959-.845 1.91a96 96 0 0 1-1.802 3.751 82 82 0 0 1-3.55 6.307 72 72 0 0 1-2.279 3.431c-.297.42-.611.828-.907 1.249-.76 1.083 1.062-1.171-.382.451-1.612 1.81-3.19 3.616-4.958 5.281-.897.845-1.832 1.638-2.764 2.443-.176.152-1.37 1.153-.241.224 1.288-1.059-.732.533-1.002.726-3.721 2.66-7.714 4.925-11.833 6.907q-1.455.698-2.929 1.353c-.349.155-2.175.941-.718.324 1.364-.578-.085.031-.307.119a207 207 0 0 1-6.984 2.65c-8.876 3.17-17.941 5.782-26.801 8.997-19.099 6.931-37.163 16.989-47.702 35.075-9.954 17.081-11.599 37.345-8.256 56.504 3.145 18.029 11.684 36.348 24.216 49.794 5.692 6.107 13.449 10.564 20.721 14.516 22.982 12.488 47.736 21.745 72.348 30.429 28.408 10.024 57.125 19.168 85.841 28.262a7819 7819 0 0 0 37.491 11.739c9.327 2.902 18.836 5.084 28.252 7.684q2.365.652 4.726 1.321c.731.208 1.459.438 2.194.63.315.082.623.207.941.275.392.083 2.731.668.521.121.16.04.334.122.486.178 6.555 2.401 9.381-8.062 2.879-10.444-1.051-.385.383.154.21.076-.298-.134-.602-.256-.901-.386-1.098-.479-2.207-.936-3.312-1.4a677 677 0 0 0-4.745-1.97 1213 1213 0 0 0-5.542-2.262l-2.943-1.192-1.756-.709c-.155-.063-.926-.376-.089-.029.958.397-.339-.151-.533-.234-10.917-4.695-22.142-8.483-33.339-12.454-27.196-9.646-54.306-19.495-81.173-30.027a1694 1694 0 0 1-20.845-8.324 1328 1328 0 0 1-12.334-5.097c-.446-.187-.908-.36-1.346-.566-.017-.008 2.032.862.919.388-1.645-.701-3.292-1.397-4.936-2.102-3.206-1.375-6.393-2.796-9.596-4.179.034.015-4.337-1.911-1.974-.834 1.591.725.179.074-.227-.099q-1.09-.465-2.177-.931a711 711 0 0 1-4.58-1.986c-5.618-2.46-11.204-4.995-16.731-7.655-8.773-4.221-17.551-8.672-25.614-14.158a86 86 0 0 1-2.194-1.542c-.334-.244-.663-.555-1.02-.758-.272-.155 2.74 2.192 1.004.772-1.158-.947-2.305-1.899-3.364-2.958-.442-.442-.865-.9-1.278-1.369-.783-.891-1.508-1.829-2.263-2.744 1.64 1.989-.345-.503-.841-1.202a91 91 0 0 1-6.752-11.168 96 96 0 0 1-1.396-2.844c-.257-.547-.502-1.098-.754-1.647-.105-.228-.723-1.641-.127-.261.618 1.431-.594-1.518-.762-1.96a93 93 0 0 1-1.219-3.411 92 92 0 0 1-3.361-13.084c-.104-.578-.603-3.554-.346-1.973s-.151-1.386-.208-1.977q-.316-3.302-.367-6.619a77 77 0 0 1 .177-6.559c.061-.867.151-1.73.228-2.596.195-2.189-.095.235-.1.548.01-.7.219-1.442.339-2.128.715-4.102 1.912-7.997 3.264-11.924.211-.611.518-2.082-.223.45.113-.388.346-.797.52-1.161.428-.893.848-1.789 1.308-2.666a56 56 0 0 1 3.523-5.83c.237-.343.544-.684.745-1.048.776-1.403-1.341 1.534-.27.327.671-.757 1.287-1.562 1.965-2.315a56 56 0 0 1 4.778-4.699 61 61 0 0 1 2.473-2.051c-1.843 1.445.181-.075.934-.593a75 75 0 0 1 5.815-3.605 92 92 0 0 1 5.711-2.93c1.114-.525 2.244-1.01 3.365-1.518-2.299 1.041.6-.233 1.483-.579 4.223-1.656 8.515-3.127 12.823-4.546 8.779-2.891 17.639-5.569 26.197-9.085 9.783-4.02 18.792-8.799 26.918-15.645s14.514-15.951 19.1-25.489c9.971-20.735 14.488-43.989 19.154-66.365 4.431-21.249 8.272-42.614 12.471-63.909 3.988-20.225 8.31-40.405 13.863-60.265 2.774-9.92 5.856-19.757 9.356-29.446 1.774-4.91 3.699-9.754 5.654-14.594.494-1.224-.065.144-.142.328.014-.034 1.906-4.517.806-1.927q.714-1.682 1.45-3.355a289 289 0 0 1 3.246-7.129c4.405-9.328 9.329-18.414 14.823-27.147a234 234 0 0 1 8.621-12.758 234 234 0 0 1 2.226-3.015c.133-.177 1.466-1.939.782-1.044-.608.796.474-.608.476-.61a235 235 0 0 1 5.497-6.733 250 250 0 0 1 20.733-21.628 249 249 0 0 1 11.645-10.132c1.855-1.514 3.693-3.049 5.561-4.547 2.334-1.872 2.413-1.935 4.885-3.778 31.596-23.558 69.243-40.176 108.55-44.831 9.991-1.183 19.978-1.243 30.015-.643 6.359.381 6.295-9.419 0-9.868Zm118.31 38.183c15.494 7.645 29.99 17.495 42.379 29.57 11.363 11.075 19.984 23.042 27.75 36.93a177 177 0 0 1 5.434 10.585q1.14 2.405 2.214 4.84.58 1.309 1.139 2.627c-.531-1.26.553 1.369.71 1.76 2.874 7.149 5.354 14.454 7.501 21.854 4.235 14.598 7.027 29.499 9.299 44.513q.38 2.504.727 5.011l.211 1.536c-.009-.065-.23-1.85-.097-.702.118 1.018.263 2.033.389 3.049q.653 5.273 1.195 10.559a671 671 0 0 1 1.787 20.771c1.546 21.567 1.258 43.074-1.375 64.552-.307 2.501-.466 3.602-.934 6.78a427 427 0 0 1-1.311 8.411 375 375 0 0 1-3.34 17.338c-2.46 11.341-5.428 22.57-8.834 33.663-6.8 22.15-14.889 42.641-24.412 62.961-9.896 21.116-21.586 41.653-28.214 64.133-3.63 12.313-6.596 25.749-.63 37.8 2.437 4.924 6.335 9.064 9.925 13.164a131 131 0 0 1 3.574 4.248c.725.902 1.312 1.739.212.242.621.845 1.26 1.676 1.874 2.527a123.7 123.7 0 0 1 12.42 21.444c.177.392 1.354 3.068.663 1.475-.682-1.572.466 1.17.594 1.494q.557 1.415 1.079 2.843a122 122 0 0 1 3.191 10.068 119 119 0 0 1 2.694 12.742c.056.365.108.73.164 1.095.318 2.08-.173-.678-.105-.779-.474.694.474 4.512.547 5.471.517 6.858.309 13.681-.404 20.514-.221 2.12.361-2.26.025-.16-.131.816-.253 1.633-.394 2.447a96 96 0 0 1-1.048 5.183 91 91 0 0 1-2.715 9.412c-.472 1.354-1.593 3.159-1.73 4.556-.004.036.969-2.18.452-1.08-.197.419-.374.848-.566 1.269a82 82 0 0 1-6.02 10.944c-.892 1.364-1.877 2.656-2.796 4-.674.986.703-.887.696-.882-.276.185-.695.879-.872 1.097a79 79 0 0 1-8.801 9.231c-.684.61-2.962 3.239-3.889 3.253-.082.001 1.886-1.341.822-.646-.305.2-.592.441-.887.655a81 81 0 0 1-2.426 1.698 85.5 85.5 0 0 1-9.525 5.546c-1.528.764-3.087 1.453-4.642 2.159 2.701-1.225-.01-.019-.662.233a97 97 0 0 1-3.072 1.127 105 105 0 0 1-11.88 3.353 72 72 0 0 1-3.705.733c-.529.088-1.076.135-1.601.245-.074.016 3.27-.368 1.578-.22-.323.028-.646.074-.969.109a95 95 0 0 1-7.28.467c-5.752.165-11.513-.073-17.249-.495a285 285 0 0 1-9.853-.907 359 359 0 0 1-7.156-.85c-.455-.058-1.02-.205-1.463-.191.542-.017 2.356.324.791.106-31.276-4.367-62.153-11.28-92.958-18.135a2321 2321 0 0 0-45.352-9.644c-13.017-2.624-26.084-5.204-39.294-6.647a61 61 0 0 0-7.363-.382q-1.562.017-3.122.069c-.533.018-1.068.029-1.6.064a24 24 0 0 0-2.997.365c.022-.004 2.66-.194 1.241-.268-5.1-.265-9.447 4.532-9.447 9.447 0 5.336 4.331 9.181 9.447 9.447q.434.021.868.047l-4.768-1.29c2.772 1.177 5.479 1.634 8.396 2.287.577.129 1.151.275 1.73.397.339.072.672.175 1.013.237.166.03 4.645.32 1.934.272-1.938-.034.145.057.729.154q1.103.183 2.205.375c5.966 1.04 11.93 2.106 17.873 3.268 14.455 2.826 28.823 6.084 43.181 9.361 31.781 7.253 63.637 14.506 95.801 19.871 25.791 4.302 53.82 9.238 79.612 2.416 15.889-4.203 30.819-11.954 42.897-23.157 11.045-10.245 19.045-23.309 24.073-37.444 10.262-28.853 6.221-61.074-5.999-88.607a123.7 123.7 0 0 0-10.914-19.575c-2.529-3.701-5.258-7.278-8.096-10.747a148 148 0 0 0-3.785-4.413c-.703-.794-1.411-1.583-2.102-2.388-.46-.536-.923-1.074-1.364-1.626.723.904.204.293-.183-.281-.782-1.161-1.512-2.329-2.141-3.58.785 1.56-.207-.815-.364-1.41-.59-2.232-.181-1.099-.137-.571a23 23 0 0 1-.057-1.782c-.003-.798.029-1.592.086-2.388.016-.222.251-2.237.141-1.517-.171 1.123.254-1.292.293-1.496q.168-.883.351-1.763.428-2.049.926-4.083a138 138 0 0 1 2.413-8.619c3.588-11.413 7.451-19.814 12.626-30.567 10.454-21.723 20.882-43.332 29.346-65.938 8.287-22.132 15.001-44.881 19.548-68.081 4.584-23.389 6.972-47.256 6.537-71.1-.302-16.588-1.992-33.224-4.082-49.677-4.008-31.546-11.079-62.61-24.609-91.539-14.092-30.132-36.529-57.112-65.571-73.83-7.85-4.519-16.083-8.314-24.52-11.596-4.935-1.92-8.368 6.234-3.617 8.578Z"/><path d="M278.602 697.738c29.742 1.123 59.73 3.843 88.576 8.245 29.623 4.521 58.877 10.813 87.916 18.172s57.626 16.515 85.877 26.655c14.154 5.081 28.262 10.432 42.074 16.39-1.492-.644.005.003.635.271a781 781 0 0 1 8.152 3.518 834 834 0 0 1 30.484 14.085c12.174 5.926 24.228 12.168 35.634 19.485a197 197 0 0 1 8.625 5.851c1.311.943 2.597 1.92 3.901 2.874.648.475 1.302.943 1.947 1.422q.414.307.827.617c.205.154 1.757 1.345.727.547-.9-.698.028.025.176.142q.543.429 1.082.861.942.758 1.872 1.53a135 135 0 0 1 3.915 3.379c2.477 2.224 4.881 4.525 7.35 6.756 1.192 1.077 2.343 2.196 3.517 3.291.879.819 1.835 1.537 2.795 2.259.144.108 1.015.784.168.123q.544.427 1.083.859c2.27 1.812 5.136 2.566 7.802 1.007 2.251-1.316 4.026-4.678 2.959-7.271-1.478-3.591-3.047-6.731-5.303-9.887a74 74 0 0 0-7.3-8.75 136 136 0 0 0-16.544-14.436c-11.04-8.153-22.999-14.978-35.191-21.24-27.131-13.936-55.263-26.091-83.786-36.875s-57.526-19.526-86.977-26.853c-29.881-7.433-60.224-12.797-90.758-16.716a884 884 0 0 0-91.046-6.947q-5.594-.134-11.189-.195c-2.927-.033-5.415 2.512-5.415 5.415 0 3.026 2.481 5.305 5.415 5.415Z"/><path d="M317.294 696.11c45.03 34.548 98.201 57.533 153.141 71.778s111.762 19.993 168.47 22.351c-31.362-8.671-61.141-22.165-91.658-33.456-42.398-15.687-86.226-27.122-129.969-38.531-25.797-6.728-51.698-13.476-78.185-16.506"/><path d="M315.532 699.124c8.433 6.459 16.645 13.181 25.238 19.439 8.506 6.194 17.77 11.563 26.919 16.741 18.721 10.595 38.76 19.061 58.95 26.422 20.554 7.493 41.657 13.45 62.991 18.27 11.395 2.575 22.871 4.815 34.374 6.856 5.799 1.029 11.621 1.916 17.421 2.937 2.843.501 5.69.978 8.538 1.453 1.14.19 2.28.351 3.426.505-2.54-.342 1.106.149 1.36.184q2.713.366 5.427.717c23.261 2.998 46.618 4.972 70.034 6.238 2.897.157 5.795.298 8.693.444 4.515.228 8.358-3.635 8.929-7.883a9.1 9.1 0 0 0-6.512-9.975c-19.342-5.56-38.178-12.818-56.885-20.197-18.883-7.449-37.747-14.882-57.004-21.324-38.957-13.031-78.807-23.274-118.566-33.522-11.098-2.861-22.225-5.628-33.437-8.008a417 417 0 0 0-17.17-3.29 331 331 0 0 0-8.635-1.344c-3.51-.499-7.019-.721-10.532-1.127-2.157-.249-4.958 1.194-6.425 2.661-1.576 1.576-2.763 4.161-2.661 6.425.105 2.35.877 4.787 2.661 6.425 1.888 1.733 3.894 2.369 6.425 2.661l.621.072-2.415-.325c5.097.984 10.268 1.581 15.387 2.436s10.245 1.827 15.34 2.881c9.999 2.069 19.928 4.462 29.824 6.971a3579 3579 0 0 1 59.063 15.517c19.809 5.384 39.545 11.055 59.066 17.411 19.155 6.237 37.958 13.364 56.685 20.773 20.991 8.305 41.986 16.593 63.824 22.437l2.417-17.858c-23.177-.769-46.372-2.169-69.46-4.341-5.87-.552-11.725-1.266-17.595-1.796a778 778 0 0 1-8.623-.828 149 149 0 0 1-3.998-.451q-1.075-.14-2.151-.284c-.907-.12.464.063.524.07-.514-.064-1.028-.14-1.541-.211-11.499-1.583-22.942-3.467-34.327-5.731-21.541-4.283-42.802-9.772-63.7-16.527a470 470 0 0 1-29.883-10.769 505 505 0 0 1-7.276-2.982c1.051.44-.1-.043-.509-.217a457 457 0 0 1-5.677-2.468 549 549 0 0 1-15.272-7.042c.964.463-.198-.131-.544-.292a412 412 0 0 1-12.633-6.168 386 386 0 0 1-13.853-7.424c-9.11-5.127-18.203-10.288-26.997-15.947-2.2-1.415-4.258-3.057-6.333-4.647-1.498-1.147-3.907-.232-4.775 1.252-1.051 1.797-.249 3.625 1.252 4.775Z"/><path d="M421.839 726.705c-2.621 4.72-5.257 9.463-7.578 14.34-2.466 5.181-4.56 10.635-6.322 16.094-3.26 10.098-4.976 20.715-4.05 31.331.937 10.742 4.038 21.612 10.554 30.355 6.145 8.247 13.997 15.134 23.067 20.028 7.499 4.046 15.717 6.913 24.151 8.159 4.55.672 9.103 1.131 13.706 1.103 4.659-.029 9.292-.526 13.891-1.253 16.773-2.65 33.103-10.804 44.836-23.155 7.505-7.9 13.545-17.555 16.283-28.168 2.753-10.668 2.52-22.34-.93-32.824a50 50 0 0 0-1.179-3.198c-.536-1.323-.791-2.038-1.559-3.048a95 95 0 0 0-2.275-2.9c-1.042-1.267-2.878-1.911-4.422-2.118-1.642-.221-3.477-.011-4.911.914-3.011 1.941-4.258 5.215-3.539 8.698.26 1.26.425 2.49.892 3.693a49 49 0 0 1 1.304 3.831 51.5 51.5 0 0 1 1.628 7.707l-.299-2.225a52.5 52.5 0 0 1-.05 13.603l.299-2.227a50.4 50.4 0 0 1-3.372 12.309l.845-2.002c-1.969 4.606-4.579 8.876-7.638 12.836l1.312-1.698a67 67 0 0 1-11.63 11.602l1.699-1.313c-4.894 3.767-10.261 6.853-15.947 9.259l2.007-.847a78 78 0 0 1-19.53 5.297l2.236-.3a77.8 77.8 0 0 1-20.23.048l2.239.301c-6.446-.866-12.789-2.524-18.786-5.05l1.99.84a66.8 66.8 0 0 1-14.42-8.441l1.66 1.282c-3.906-3.033-7.457-6.48-10.506-10.379l1.264 1.636c-2.814-3.657-5.195-7.584-6.998-11.835l.786 1.862c-1.908-4.604-3.154-9.426-3.845-14.358l.265 1.973a72 72 0 0 1-.603-11.37c.048-1.858.173-3.715.299-5.569a82 82 0 0 1 .383-4.103c.025-.215.023-.691.113-.917-.13.327-.186 1.305-.05.386 1.215-8.181 3.524-16.018 5.937-23.907 1.355-4.429 2.853-8.812 4.393-13.18.668-1.893-.606-4.027-2.334-4.756-1.798-.759-4.054-.116-5.034 1.649Zm173.155-554.317a27 27 0 0 1-.118-4.223q.031-.577.087-1.152c.006-.058.186-1.306.053-.489a32 32 0 0 1 .441-2.239c.331-1.381.788-2.708 1.277-4.038.429-1.167-.256.509.066-.169.137-.289.265-.584.395-.876.341-.77.681-1.537 1.065-2.287a36 36 0 0 1 2.078-3.546q.657-.984 1.37-1.928c-.639.848-.091.128.078-.079q.435-.531.888-1.048a38.6 38.6 0 0 1 4.514-4.357c.161-.132 1.133-1.004.215-.181.409-.367.91-.672 1.361-.986 2.533-1.761 5.241-3.26 8.051-4.528.242-.109 1.553-.725.192-.099.38-.175.779-.32 1.168-.472a67 67 0 0 1 6.82-2.255 98 98 0 0 1 9.138-2.053q1.257-.22 2.519-.413c.39-.059 2.826-.529.95-.147 1.743-.355 3.614-.433 5.386-.585 7.672-.66 15.402-.562 23.039.45l-1.876-.252c7.122.979 14.104 2.778 20.742 5.552l-1.815-.766c5.33 2.261 10.341 5.22 14.932 8.744l-1.642-1.268c4.26 3.309 8.105 7.105 11.409 11.372l-1.345-1.741c2.951 3.863 5.466 8.038 7.371 12.514l-.9-2.134a49 49 0 0 1 3.334 12.168l-.328-2.441c.615 4.675.549 9.407-.07 14.079l.335-2.495c-.565 4.029-1.619 7.959-3.195 11.712l.946-2.242a42.2 42.2 0 0 1-5.136 8.856l1.468-1.9c-.845 1.093-1.755 2.13-2.6 3.224-1.702 2.203-2.044 4.635-1.87 7.285.287 4.364 3.307 7.417 7.702 7.702 1.336.086 2.719.087 4.019-.271 2.206-.608 3.935-2.07 5.341-3.8 1.543-1.899 3.044-3.85 4.337-5.931 2.162-3.478 3.835-7.32 5.131-11.198 2.424-7.255 3.246-15.22 2.29-22.808-.532-4.222-1.263-8.346-2.696-12.365-1.405-3.941-3.158-7.811-5.33-11.392-3.97-6.545-9.204-12.382-15.225-17.1-6.568-5.146-13.571-9.08-21.371-12.061-8.28-3.164-17.154-4.752-25.98-5.305-8.949-.56-17.931.196-26.757 1.703-8.385 1.432-16.579 3.719-24.25 7.449-14.213 6.91-26.946 21.051-25.622 37.816.157 1.986.474 3.965.996 5.887.436 1.604 2.068 2.659 3.697 2.414 1.51-.227 3.098-1.62 2.922-3.309Z"/><path d="M639.514 196.365c9.856 3.428 19.755 6.738 29.672 9.983q7.377 2.414 14.783 4.733c2.508.786 5.04 1.471 7.577 2.155q1.902.513 3.805 1.019c1.554.414 2.748.282 4.282-.125 1.597-.423 2.193-2.564.982-3.721-1.124-1.074-2.073-1.788-3.604-2.176q-1.91-.485-3.817-.975c-2.545-.655-5.083-1.322-7.646-1.907a1222 1222 0 0 1-15.109-3.551c-10.131-2.449-20.208-5.095-30.254-7.871-1.583-.438-2.194 1.908-.672 2.437ZM317.522 612.182c12.643-2.25 25.354-3.673 38.152-4.684 12.968-1.024 25.916-1.826 38.928-1.968 26.031-.283 52.103 1.231 77.914 4.62 1.384.182.45.06.157.02l1.312.18q.984.136 1.967.276a547 547 0 0 1 14.729 2.3 550 550 0 0 1 19.227 3.627c12.796 2.649 25.496 5.768 38.101 9.212a582 582 0 0 1 37.507 11.626 593 593 0 0 1 34.225 13.08l1.229.515c-.687-.288-.432-.183.102.044 24.236 10.304 47.845 22.035 71.466 33.656 3.067 1.509 6.025 2.816 9.289 3.844 3.732 1.174 6.394-3.779 3.747-6.436-4.804-4.822-10.698-8.388-16.405-12.062-5.585-3.595-11.179-7.251-17.02-10.418-11.608-6.293-23.396-12.241-35.473-17.58-24.542-10.851-49.744-20.183-75.511-27.688-25.42-7.404-51.39-12.841-77.623-16.412-26.391-3.592-53.042-5.531-79.685-4.888a492 492 0 0 0-39.293 2.515c-13.327 1.394-26.462 3.752-39.624 6.216-3.259.61-6.51 1.258-9.755 1.935-2.323.485-3.668 3.219-3.068 5.403.677 2.464 3.059 3.485 5.403 3.068Z"/><path fill="#70e8a0" d="M571.965 213.663c-6.663.086-13.28.652-19.879 1.56l-1.076.15c1.831-.252-.963.125-1.079.142l-2.417.365a154 154 0 0 0-14.08 2.79c-12.652 3.125-25.174 7.733-36.468 14.264-6.769 3.914-13.111 8.403-19.279 13.199l2.078-1.606c-16.324 12.493-29.554 29.187-40.564 46.412-5.231 8.183-9.476 17.107-13.56 25.905q-.746 1.608-1.478 3.222-.34.745-.673 1.492a85 85 0 0 0-.68 1.58q-.798 1.916-.222.499.462-1.125.017-.082c-1.192 2.686-2.314 5.405-3.447 8.116a622 622 0 0 0-5.464 13.549c-3.733 9.555-7.337 19.162-10.898 28.783-3.882 10.49-8.131 20.844-12.072 31.315-7.92 21.044-15.198 42.353-21.271 64.008-6.088 21.709-10.516 43.934-13.314 66.314-.347 2.773-.587 5.563-.849 8.345-.267 2.84 4.338 3.427 4.964.672 2.17-9.545 4.217-19.121 6.615-28.613 2.353-9.314 5.08-18.517 7.622-27.778 5.157-18.782 11.295-37.26 18.201-55.469 3.497-9.221 7.163-18.377 10.941-27.485 1.984-4.782 3.205-7.672 5.24-12.425 1.893-4.421 3.802-8.825 5.853-13.175 7.395-15.689 14.838-31.371 23.144-46.604 4.5-8.253 9.13-16.423 14.226-24.327 5.148-7.986 10.318-15.965 16.126-23.493l-1.609 2.082c9.362-12.066 20.191-22.822 32.258-32.183l-2.031 1.569a155 155 0 0 1 13.814-9.507c4.682-2.857 9.341-5.741 14.205-8.286a153 153 0 0 1 10.159-4.847c.255-.11 1.343-.573.311-.137-.981.414-.109.047.077-.029q.502-.207 1.006-.412 1.133-.459 2.272-.901c5.124-1.986 10.356-3.728 15.677-5.104 2.95-.763 5.94-1.394 8.935-1.952a147 147 0 0 1 6.886-1.115c-.909.124.009 0 .164-.018q.808-.099 1.618-.195c2.741-.321 5.433-2.205 5.295-5.295-.127-2.838-2.327-5.333-5.295-5.295Zm-32.742 261.15a351.5 351.5 0 0 1 36.91 35.374c11.299 12.53 21.8 25.834 31.276 39.794a349 349 0 0 1 7.811 12.031c2.616 4.215 5.02 8.552 8.343 12.256 1.713 1.909 5.117-.092 4.324-2.517-1.374-4.208-3.646-7.924-6.014-11.644a352 352 0 0 0-7.102-10.717 364 364 0 0 0-15.568-20.905c-10.706-13.362-22.567-25.814-35.197-37.368a353 353 0 0 0-22.316-18.771c-.751-.581-1.734-.718-2.468 0-.626.612-.724 1.869 0 2.468Zm48.366-23.741c12.197 13.213 23.491 27.141 33.965 41.757a493 493 0 0 1 36.141 58.692c1.168 2.233 2.244 4.531 3.51 6.71.633 1.09 1.25 2.188 1.886 3.276.749 1.281 1.765 2.357 2.727 3.48.927 1.081 2.764 1.195 3.938.508 1.275-.746 1.819-2.261 1.493-3.669-.27-1.166-.493-2.322-.959-3.427-.5-1.184-1.063-2.344-1.608-3.508-.946-2.021-2.038-3.956-3.128-5.902a495 495 0 0 0-21.366-34.689 502 502 0 0 0-32.946-43.539c-6.611-7.813-13.351-15.526-20.334-23.008-2.067-2.215-5.365 1.102-3.319 3.319m22.651-49.642c17.457 17.015 33.918 35.72 48.265 54.908 14.67 19.62 27.768 40.386 39.475 61.901a477 477 0 0 1 13.866 27.564c.713 1.538 1.668 2.989 2.508 4.461.979 1.714 1.925 3.218 3.26 4.688 1.738 1.913 5.585.495 5.341-2.212a20.7 20.7 0 0 0-1.046-4.972c-.498-1.472-.983-2.952-1.516-4.412-1.127-3.089-2.728-6.062-4.158-9.021a476 476 0 0 0-8.435-16.626 431 431 0 0 0-18.672-31.772c-13.537-20.917-28.702-40.764-45.23-59.404a480 480 0 0 0-28.895-29.867c-3.145-2.982-7.881 1.728-4.765 4.765Z"/><path fill="#70e8a0" d="M586.433 513.735a888 888 0 0 0 48.733-30.979 889 889 0 0 0 46.88-34.32 878 878 0 0 0 12.526-9.993c4.267-3.468 8.316-7.126 12.341-10.871 1.214-1.129 1.142-3.198 0-4.34-1.286-1.286-3.034-1.03-4.34 0-3.777 2.981-7.592 5.899-11.271 9.001a875 875 0 0 1-33.37 26.774 887 887 0 0 1-73.869 50.675c-2.568 1.578-.243 5.596 2.369 4.053Zm32.036 35.742c17.575-8.356 34.712-17.68 51.349-27.774a531 531 0 0 0 47.929-32.797c4.461-3.426 8.872-6.906 13.189-10.512 4.192-3.502 8.667-6.891 12.189-11.076 1.214-1.442 1.536-3.421.296-4.977-1.113-1.398-3.291-2.042-4.89-.976-4.243 2.829-7.919 6.383-11.794 9.69a900 900 0 0 1-10.922 9.157 507 507 0 0 1-22.586 17.632c-15.549 11.452-31.705 22.18-48.489 31.74a533 533 0 0 1-28.943 15.321c-1.283.63-1.634 2.452-.95 3.622.773 1.321 2.326 1.566 3.622.95m40.029 32.081a504 504 0 0 0 46.846-29.8c2.251-1.614 4.545-3.198 6.713-4.923 2.059-1.639 3.997-3.458 5.963-5.206 3.037-2.702-.952-7.953-4.375-5.67-1.939 1.293-3.892 2.564-5.842 3.84-1.891 1.237-3.656 2.687-5.474 4.029a502 502 0 0 1-47.658 31.184c-1.772 1.022-2.389 3.427-1.36 5.187 1.051 1.797 3.395 2.366 5.187 1.36Zm56.932 25.541c2.896 0 5.67-2.546 5.536-5.536s-2.432-5.536-5.536-5.536c-2.896 0-5.67 2.546-5.536 5.536s2.432 5.536 5.536 5.536m-438.45 30.33c-1.19.536-2.417 1.192-3.622 1.612-1.354.473-2.795.905-4.183 1.363l-7.889 2.606c-5.407 1.786-10.886 3.431-16.241 5.367-4.581 1.656-9.142 3.569-13.477 5.791-4.231 2.169-8.411 4.83-11.68 8.313-3.682 3.923-6.611 8.651-7.975 13.892-.814 3.127-1.174 6.505-.979 9.736.118 1.943.395 3.887.722 5.804.334 1.961 1.245 3.789 2.019 5.605 1.988 4.664 4.757 8.749 7.441 13.017 2.52 4.008 5.027 8.033 7.88 11.817 3.328 4.415 7.33 8.48 11.404 12.21 4.102 3.756 8.599 7.01 13.677 9.313 1.146.52 2.457.424 3.26-.651.752-1.007.701-2.398-.198-3.318-2.663-2.726-5.178-5.564-7.713-8.406a81 81 0 0 1-2.732-3.233c-.164-.205-1.061-1.369-.526-.662-1.123-1.485-2.218-2.987-3.198-4.571-2.045-3.308-3.907-6.756-5.728-10.192a76 76 0 0 1-2.476-5.128c-.089-.203-.754-1.755-.305-.7s-.178-.441-.277-.686a34 34 0 0 1-.992-2.825c-1.382-4.507-2.644-9.12-3.282-13.797l.324 2.41c-.309-2.463-.771-4.888-1.101-7.343l.329 2.451c-.266-2.23-.294-4.444.002-6.672l-.326 2.427a22.5 22.5 0 0 1 1.445-5.193l-.913 2.163a24.5 24.5 0 0 1 2.948-5.031l-1.403 1.816c2.284-2.953 5.113-5.574 8.051-7.865l-1.715 1.325c2.72-2.091 5.61-3.942 8.57-5.673 3.59-2.1 7.169-4.183 10.707-6.374l11.738-7.269 5.869-3.635c2.05-1.27 4.138-2.322 6.309-3.371 1.814-.877 2.298-3.463 1.338-5.104-1.106-1.89-3.26-2.169-5.104-1.338ZM672.982 149.5c-2.246-1.26-4.647-2.709-7.145-3.376a74 74 0 0 0-7.255-1.569c-5.385-.871-11.273-1.384-16.636-.152-9 2.068-15.71 8.719-20.594 16.225-1.158 1.78-2.088 3.721-2.973 5.648-.664 1.445-1.102 2.874-1.461 4.412-.363 1.556-.25 2.758-.075 4.277.193 1.677.761 3.103 2.295 4.001 1.39.814 3.292.878 4.677 0 .934-.593 1.897-1.153 2.73-1.887.658-.58 1.171-1.344 1.728-2.026 1.437-1.76 2.482-3.71 3.706-5.613.941-1.462 1.822-2.96 2.82-4.385.224-.32.545-.963.863-1.189.073-.052-.96 1.208-.502.649.116-.141.227-.286.342-.428a33 33 0 0 1 1.795-2.036 28 28 0 0 1 1.808-1.731c.311-.272.65-.519.956-.797-.054.049-1.372 1.003-.503.401.195-.135.386-.275.583-.409a22 22 0 0 1 2.14-1.286c.372-.196.757-.364 1.132-.553.626-.316-.815.328-.745.309.335-.09.668-.257.997-.371 2.101-.725 4.331-1.179 6.52-1.546.156-.026.945-.136.091-.019-.908.125.109-.007.334-.032q.814-.09 1.63-.158a77 77 0 0 1 3.395-.212c2.658-.109 5.309-.227 7.97-.156 2.627.07 5.231-.285 7.859-.385 2.891-.11 4.212-4.095 1.518-5.606"/><path fill="#ff8345" d="M454.286 808.488a61 61 0 0 1 9.263-5.104c3.148-1.389 6.466-2.323 9.666-3.572.976-.381 1.675-1.206 1.509-2.311-.143-.952-1.011-1.925-2.068-1.826-1.967.184-3.791.515-5.672 1.125a66 66 0 0 0-5.472 2.071 61.6 61.6 0 0 0-9.776 5.252c-1.138.751-1.622 2.234-.907 3.458.658 1.125 2.318 1.669 3.458.907Zm16.491 13.913A148 148 0 0 0 480.86 820l4.811-1.315c1.868-.511 3.548-1.231 5.296-2.06 1.149-.546 1.536-2.144 1.059-3.231-.559-1.271-1.737-1.694-3.052-1.498-.882.132-1.805.206-2.676.399-.746.165-1.47.464-2.193.706l-4.917 1.651a147 147 0 0 0-9.562 3.571c-1.08.448-1.851 1.436-1.513 2.665.329 1.196 1.513 1.743 2.665 1.513Z"/><path fill="#70e8a0" d="M247.463 298.39c-5.839 11.854-11.313 23.837-16.277 36.085a751 751 0 0 0-20.53 57.219c-.779 2.482.348 5.302 2.329 6.833 2.23 1.723 4.741 1.589 7.219.508 15.805-6.895 31.619-13.77 47.451-20.604l13.541-5.845-11.189-4.552c.165.541.294 1.075.383 1.633l-.273-2.035a12.6 12.6 0 0 1-.019 2.856l.278-2.068c-.232 1.542-.73 2.966-1.305 4.409l.801-1.898c-1.847 4.375-4.855 8.142-7.609 11.969l-9.192 12.776-18.093 25.146c-3.436 4.776-6.805 9.665-9.966 14.628-1.707 2.68-1.247 6.396.62 8.814 1.91 2.472 5.263 3.732 8.342 2.844 9.255-2.669 18.441-5.559 27.356-9.229 9.335-3.843 18.404-8.233 27.11-13.349l-10.111-5.802c-.154 7.386-.729 14.715-1.64 22.044-.102.823.178-1.267.002-.016q-.101.724-.205 1.447-.192 1.326-.401 2.649c-.29 1.844-.647 3.677-.94 5.52-.139.874-.236 1.757-.35 2.635-.024.186-.2 1.551-.079.617.176-1.358-.215 1.567-.25 2.005-.032.396-.041.793-.054 1.19a221 221 0 0 1-.265 5.691c-.118 2.014 1.572 4.195 3.534 4.642 1.918.437 4.563-.233 5.436-2.212 1.613-3.656 3.312-7.3 4.212-11.209.852-3.699 1.407-7.5 1.961-11.254 1.162-7.873 2.027-15.802 2.478-23.749.301-5.298-5.872-8.093-10.111-5.802a203 203 0 0 1-15.96 7.754l-.837.36q-1.054.448.432-.181c-.495.03-1.212.504-1.676.694q-3.255 1.329-6.555 2.544c-8.881 3.269-17.99 6.02-27.306 7.708l7.721 13.264c7.803-9.877 14.918-20.285 22.15-30.579l10.473-14.908c3.378-4.809 6.874-9.557 10.123-14.454 4.099-6.179 7.038-13.752 4.475-21.143-.798-2.301-2.148-3.981-4.41-4.936-2.358-.995-4.511-.696-6.779.384-15.516 7.387-31.026 14.785-46.57 22.112l-13.295 6.266 9.549 7.341a751 751 0 0 1 11.463-36.982c4.088-12.073 8.677-23.94 13.118-35.883a750 750 0 0 1 7.938-20.418c.842-2.077-.752-4.538-2.613-5.324-1.937-.818-4.639-.176-5.635 1.846Z"/></svg>