<?xml version="1.0" encoding="UTF-8"?><svg xmlns="http://www.w3.org/2000/svg" data-name="ARTWORK" viewBox="0 0 1000 1000"><path fill="#ff8345" d="M147.292 435.34c-24.245 21.831-44.141 48.579-57.85 78.2-13.048 28.193-23.719 63.18-8.4 92.682 7.44 14.329 20.932 24.457 35.078 31.583 15.352 7.733 31.922 13.482 48.49 17.981 33.461 9.085 68.305 12.365 102.903 11.14 70.859-2.507 139.924-21.815 205.755-47.111 33.59-12.907 66.723-27.002 99.853-41.038 14.54-6.16 31.45-13.237 47.485-19.666 16.454-6.597 33.011-12.944 49.732-18.837 33.307-11.738 67.316-21.677 102.067-28.118 17.266-3.2 32.907-5.674 51.235-4.584 2.222.132 4.443.317 6.654.582 2.427.291-1.546-.262.866.128 1.219.197 2.436.405 3.648.642 4.167.817 8.296 1.89 12.306 3.292.925.324 1.83.704 2.754 1.028 1.934.678-1.759-.881.079.033 1.591.791 3.21 1.509 4.777 2.351a74 74 0 0 1 6.584 3.985c.332.225 3.169 2.243 2.005 1.38-1.268-.941.685.56.961.79a66 66 0 0 1 5.581 5.189c1.21 1.265 2.32 2.603 3.463 3.927 1.428 1.655-1.6-2.516.361.53.52.807 1.083 1.585 1.596 2.398a55 55 0 0 1 2.551 4.493c.345.684.653 1.381.989 2.069-1.099-2.255-.215-.547-.037-.004.603 1.831 1.228 3.621 1.682 5.499.182.752.32 1.51.49 2.265.628 2.793.006-2.05.187 1.232.09 1.634.213 3.26.196 4.898a50 50 0 0 1-.081 2.42c.004-.077-.336 3.849-.11 1.818.224-2.013-.339 1.83-.328 1.776a55 55 0 0 1-.518 2.338 58 58 0 0 1-1.727 5.747c-.27.76-.564 1.507-.854 2.259.85-2.201.109-.263-.101.157-.917 1.836-1.804 3.667-2.82 5.451a89 89 0 0 1-6.213 9.407c1.271-1.689-.034.036-.264.312-.684.821-1.358 1.65-2.053 2.461a127 127 0 0 1-3.881 4.319 146 146 0 0 1-8.353 8.174c-6.697 6.072-9.905 8.447-16.701 13.327-12.127 8.708-24.703 16.783-37.605 24.291-12.708 7.395-25.735 14.236-38.978 20.62a686 686 0 0 1-20.638 9.518 840 840 0 0 1-9.601 4.162c-2.415 1.03-.719.305-.211.091q-1.42.597-2.844 1.188-2.848 1.184-5.705 2.346c-27.79 11.314-56.14 21.193-84.628 30.589-57.447 18.948-115.654 35.901-171.769 58.649-28.075 11.381-55.672 24.022-81.973 39.097-12.867 7.375-25.415 15.311-37.523 23.878-12.519 8.858-25.401 18.063-36.1 29.111-11.141 11.504-21.572 25.689-24.297 41.826-2.749 16.282 1.399 33.046 14.749 43.701 12.178 9.719 27.453 12.662 43.382 13.578 18.513 1.065 37.019.507 55.498-.828 9.075-.656 18.117-1.677 27.122-2.973 9.197-1.323 18.034-3.755 27.098-5.652 7.2-1.507 4.153-12.534-3.04-11.029-8.943 1.872-18.302 2.617-27.374 3.656a368 368 0 0 1-27.656 2.093c-17.43.675-35.571-.246-52.774-3.188-6.38-1.091-13.929-2.851-19.064-5.344a41 41 0 0 1-3.999-2.202 38 38 0 0 1-1.892-1.256c-2.903-2.09.553.56-.981-.798-1.265-1.119-2.474-2.306-3.558-3.603.312.373.859 1.36-.357-.513-.637-.981-1.226-1.981-1.829-2.983.17.283.717 1.966-.251-.402a26 26 0 0 1-.737-2.082c-.217-.694-.411-1.4-.578-2.108.013.055-.547-3.398-.346-1.625.169 1.496-.017-.751-.024-1.096-.019-.899-.039-1.792-.002-2.692.029-.726.099-1.445.156-2.169-.177 2.226.055-.113.256-1.034a44 44 0 0 1 1.186-4.32c.239-.728.512-1.438.765-2.16 1.19-3.395-.78 1.259.273-.626 1.861-3.331 3.409-6.821 5.393-10.092a87 87 0 0 1 2.707-4.179c.26-.378 3.134-4.271 1.644-2.354 2.457-3.162 5.148-6.155 7.948-9.015 5.177-5.287 10.903-9.941 16.721-14.497.47-.368 2.607-2.006.683-.535q.974-.746 1.952-1.487a417 417 0 0 1 13.368-9.71 452 452 0 0 1 18.31-12.109c24.642-15.462 50.677-28.604 77.348-40.18 1.688-.733 3.383-1.449 5.072-2.18 2.181-.944-2.88 1.198.757-.321l2.267-.947a859 859 0 0 1 10.249-4.183 994 994 0 0 1 20.701-8.02c13.93-5.224 27.965-10.165 42.054-14.941 28.353-9.611 56.926-18.554 85.411-27.762 56.761-18.346 113.575-37.833 166.619-65.431 26.754-13.92 53.092-29.83 76.353-49.119 24.877-20.629 46.432-50.449 39.51-84.402-6.614-32.441-38.823-53.547-69.776-58.105-19.111-2.815-37.959-1.274-56.964 1.652-17.274 2.66-34.402 6.307-51.333 10.628-68.266 17.424-133.068 45.958-197.643 73.63-62.024 26.578-127.515 53.027-195.276 66.804-64.781 13.171-134.659 14.521-198.165-8.636-13.76-5.017-28.047-11.249-37.691-22.712-9.156-10.882-11.289-25.571-10.395-39.332.998-15.358 5.925-30.39 11.674-44.566 5.998-14.79 13.715-28.947 22.637-42.172 8.765-12.992 18.878-24.985 30.06-35.959 4.176-4.098-2.087-10.254-6.385-6.385Z"/><g fill="#f45b5b"><path d="M505.584 788.36c-93.027-63.833-165.849-156.988-214.931-257.892-78.207-160.779-77.838-411.404 118.53-484.399a289 289 0 0 1 8.599-3.04c100.42-33.762 203.56 11.813 242.785 110.218 14.79 37.103 20.693 77.197 22.901 117.078 5.133 92.707-9.463 186.415-42.225 273.276-32.49 86.138-71.803 172.099-129.287 244.76"/><path d="M508.075 784.098c-53.592-39.96-101.484-88.565-140.8-142.609-19.96-27.437-37.888-56.344-53.946-86.227-7.047-13.115-13.807-26.415-19.924-39.992a459 459 0 0 1-4.085-9.344c.727 1.718-.364-.879-.412-.995a481 481 0 0 1-8.104-20.898c-8.256-22.858-14.817-46.331-19.678-70.143a505 505 0 0 1-4.738-26.921c-.219-1.48-.426-2.962-.637-4.443-.27-1.892-.08-.565-.027-.167a480 480 0 0 1-3.665-40.16c-1.175-24.203-.455-48.524 2.542-72.577q.163-1.304.334-2.607c-.245 1.879-.047.345.006-.027.205-1.441.408-2.883.625-4.322q.713-4.738 1.551-9.454a348 348 0 0 1 3.546-17.395c2.664-11.545 5.935-22.954 9.869-34.131 1.878-5.335 3.926-10.603 6.086-15.829-.806 1.949.711-1.649.997-2.302a271 271 0 0 1 5.711-12.21c5.118-10.269 10.898-20.211 17.347-29.702a243 243 0 0 1 7.348-10.234c-.024.031 1.658-2.153.76-.997-.714.919 1.123-1.417 1.304-1.643a235 235 0 0 1 11.289-13.131 232.4 232.4 0 0 1 27.493-25.269c-1.506 1.182.026-.021.407-.308a300 300 0 0 1 3.521-2.624 238 238 0 0 1 7.612-5.336c5.239-3.522 10.618-6.835 16.116-9.937s11.162-6.018 16.9-8.711a278 278 0 0 1 8.229-3.691c-1.878.808 1.036-.431 1.146-.476q.893-.367 1.787-.728a277 277 0 0 1 5.43-2.123c28.419-10.765 55.357-15.777 85.349-14.015 13.566.797 25.28 2.764 39.373 6.858 13.811 4.012 23.557 8.074 35.98 14.969 23.338 12.952 43.814 31.474 58.709 52.725 19.499 27.819 29.918 58.292 36.485 91.775 7.183 36.622 8.846 74.439 8.057 111.694-1.615 76.215-16.788 151.583-43.746 222.856-25.675 67.88-55.445 134.723-95.404 195.635-9.459 14.419-19.371 28.696-30.059 42.238-3.401 4.309-4.205 10.182 0 14.387 3.533 3.533 10.964 4.336 14.387 0 47.236-59.851 82.342-127.218 111.65-197.377 14.665-35.108 28.495-70.679 38.756-107.35 10.697-38.229 17.936-77.397 21.909-116.891 3.919-38.961 4.497-78.325 1.408-117.367-3.075-38.867-10.056-77.632-25.561-113.591-23.585-54.697-70.646-97.261-128.137-113.532-57.875-16.379-119.291-4.324-171.148 24.546-43.509 24.223-78.627 61.457-101.021 105.867-22.333 44.289-32.554 93.797-34.328 143.149-1.825 50.767 5.215 102.026 19.16 150.82 15.779 55.213 41.712 106.974 72.761 155.129 37.462 58.101 82.97 111.663 137.288 154.654 13.189 10.439 26.995 20.018 41.208 29.011 5.491 3.475 9.948-4.822 4.983-8.524Z"/></g><path d="M534.912 851.178c-19.061 13.953-39.384 29.699-45.308 52.566-5.196 20.054 2.762 42.507 18.466 56.019 15.703 13.511 38.175 18.134 58.361 13.479 12.162-2.805 23.371-8.652 34.428-14.442 9.324-4.882 18.806-9.88 26.231-17.338 18.456-18.539 19.714-50.633 4.87-72.174s-43.185-31.886-69.02-27.781c-25.835 4.104-48.615 21.351-62.284 43.655"/><path d="M532.481 847.02c-3.452 2.28-6.892 4.578-10.281 6.951-1.76 1.233-3.483 2.514-5.23 3.764-.158.113-.322.218-.48.332l-1.17.904.552-.423c-.44.209-.864.632-1.254.921-1.041.772-2.07 1.557-3.096 2.35-6.722 5.193-13.025 10.826-18.4 17.428-5.734 7.044-10.12 15.596-12.33 24.409-2.259 9.009-1.908 18.671.1 27.686 4.011 18.009 15.858 33.725 31.819 42.883 16.481 9.456 36.314 12.056 54.821 8.198 10.188-2.124 19.866-6.454 29.134-11.082 8.489-4.24 17.142-8.506 25.052-13.772 8.073-5.374 15.141-11.878 20.268-20.17 4.26-6.891 7.173-14.841 8.401-22.847 1.383-9.012 1.266-17.858-.599-26.81-1.655-7.946-4.861-15.828-9.377-22.581-9.91-14.819-25.081-25.271-42.072-30.388a84 84 0 0 0-25.536-3.523c-8.656.16-17.419 2.017-25.516 5.052-8.296 3.109-16.086 7.286-23.168 12.615-3.706 2.788-7.283 5.721-10.616 8.949-1.485 1.439-2.871 2.914-4.15 4.538q-.917 1.168-1.819 2.348c-.169.22-.715.919-.029.05 1.023-1.297-.762.994-.768 1.002a84 84 0 0 0-1.882 2.605c-.144.206-.302.407-.431.623l-.107.156q1.107-1.319.074-.017a38 38 0 0 0-1.26 1.738 67 67 0 0 0-1.584 2.377c-.73 1.167-1.15 2.461-1.555 3.772-.352 1.14-.859 2.408-.747 3.608l.592-2.188c-.499.73-.835 1.595-1.206 2.398q-.241.524-.478 1.051c-.092.205-.989 2.012-.619 1.412-1.023 1.661-.36 3.973 1.296 4.942 1.721 1.007 3.916.37 4.942-1.296-.248.403.559-.593.648-.696q.37-.426.743-.847c.75-.845 1.514-1.655 2.159-2.589l-2.59 1.992c1.311-.351 2.293-1.212 3.384-1.967.6-.415 1.198-.817 1.776-1.263a4.5 4.5 0 0 0 1.535-1.672l-.418.643c.126-.02.425-.46.518-.56q.587-.629 1.182-1.247c.269-.279 1.076-.854 1.205-1.229q-1.453.981-.098-.021.428-.282.794-.636c.239-.211.468-.436.703-.652a88 88 0 0 1 1.862-1.666l.29-.253q.609-.52-.687.469c.555-.717 1.712-1.351 2.453-1.963.892-.738 1.819-1.437 2.683-2.207a102 102 0 0 1 5.485-4.539l-1.567 1.211c6.17-4.729 12.883-8.702 20.037-11.75l-2.051.866c6.916-2.911 14.128-5.004 21.572-6.005l-2.451.329c7.033-.909 14.206-.981 21.24-.061l-2.493-.335a76.3 76.3 0 0 1 19.093 5.165l-2.237-.944c5.606 2.37 10.897 5.413 15.717 9.133l-1.892-1.462c4.116 3.213 7.833 6.889 11.047 11.006l-1.46-1.889a57.6 57.6 0 0 1 7.345 12.506l-.94-2.227a61.6 61.6 0 0 1 4.24 15.588l-.333-2.475a62.8 62.8 0 0 1-.015 16.48l.332-2.472c-.693 4.958-1.985 9.802-3.915 14.423l.936-2.218c-1.724 4.053-3.921 7.873-6.603 11.369l1.45-1.877c-2.817 3.619-6.128 6.769-9.749 9.577l1.875-1.448c-5.8 4.439-12.215 7.95-18.662 11.345-6.855 3.61-13.714 7.237-20.848 10.273l2.204-.93c-6.902 2.909-14.049 5.204-21.485 6.237l2.448-.329a71.6 71.6 0 0 1-18.86.002l2.444.328c-5.977-.826-11.817-2.397-17.38-4.739l2.193.925c-4.808-2.058-9.345-4.671-13.502-7.847l1.855 1.433a58 58 0 0 1-10.209-10.164l1.432 1.853a63.3 63.3 0 0 1-8.164-13.954l.911 2.159a59 59 0 0 1-3.977-14.448l.316 2.354c-.63-4.707-.67-9.46-.051-14.17l-.31 2.308c.193-1.386.414-2.766.58-4.157l-.309 2.298c.678-4.499 1.954-8.872 3.715-13.064l-.818 1.939c1.517-3.549 3.43-6.822 5.406-10.125.968-1.618 2.041-3.18 3.14-4.71.551-.767 1.103-1.543 1.695-2.28-.048.059-1.111 1.415-.4.524l.36-.454q.543-.68 1.096-1.351c5.014-6.072 10.663-11.576 16.624-16.708 3.378-2.908 6.828-5.729 10.293-8.532 1.86-1.504 1.708-4.599.376-6.323-1.392-1.802-4.198-2.571-6.212-1.24Z"/><g fill="#8170f9"><path d="M381.373 208.206c-12.365 32.216-24.859 67.633-14.04 100.401 9.488 28.736 37.028 50.011 67.002 54.176s61.226-7.94 82.329-29.63c12.714-13.068 21.852-29.118 30.847-44.977 7.586-13.373 15.275-27.012 18.491-42.047 7.994-37.369-15.859-77.774-51.131-92.479s-78.26-4.982-106.736 20.502c-28.477 25.484-42.801 64.687-41.937 102.892"/><path d="M376.73 206.926c-5.49 13.016-10.851 26.151-14.958 39.681-4.081 13.447-6.904 27.605-6.312 41.712.566 13.488 3.843 26.746 10.558 38.508 6.115 10.712 14.554 19.736 24.305 27.2 18.95 14.506 43.581 21.003 67.239 18.026 6.588-.829 13.058-2.057 19.397-4.058 6.289-1.985 12.445-4.56 18.298-7.595 11.336-5.877 21.752-13.888 30.361-23.317 9.433-10.332 17.082-22.144 24.115-34.192 7.14-12.232 14.32-24.522 19.804-37.604 4.909-11.709 7.757-24.281 7.228-37.029-.501-12.077-3.577-23.627-8.543-34.602-4.661-10.301-11.378-19.809-19.302-27.859-7.915-8.041-17.376-14.911-27.704-19.502-11.841-5.263-24.34-8.205-37.3-8.793-12.066-.548-24.391 1.05-35.991 4.382-11.657 3.348-22.975 8.496-33.054 15.254-10.953 7.344-20.107 16.654-28.047 27.127-7.474 9.858-13.155 20.898-17.599 32.418a139 139 0 0 0-5.303 16.905c-.854 3.476-1.459 6.926-1.923 10.476q-.127.969-.243 1.939c-.044.369-.148.795-.133 1.166l.171-1.062-.247 1.84c-.188 1.555-.306 3.122-.418 4.684-.205 2.867-.422 5.76-.458 8.64-.023 1.809.289 3.58.586 5.363.261 1.569.373 3.346 1.236 4.71l-.592-2.188c-.04 1.312.136 2.639.26 3.945a150 150 0 0 0 .287 2.759c.034.287.156 1.97.139 1.182.041 1.951 1.63 3.612 3.612 3.612 1.926 0 3.653-1.653 3.612-3.612q-.167.528-.003-.297a7 7 0 0 0 .082-.687c.033-.328.056-.657.085-.985q.089-.987.191-1.971c.136-1.311.363-2.628.404-3.945l-.592 2.188c.734-1.011.938-2.408 1.275-3.597.281-.992.577-1.98.874-2.967q.117-.37.223-.743.369-2.782.109-.775c.207-.292.173-1.188.228-1.551q.237-1.552.508-3.097c.09-.516.192-1.03.279-1.546q.159-1.04.286-2.086-.156 1.586.033.549c.227-.887.394-1.793.604-2.684a144 144 0 0 1 1.574-6.103c2.251-8.002 4.583-15.936 7.816-23.611l-.805 1.906a133.5 133.5 0 0 1 17.185-29.375l-1.376 1.781c5.905-7.604 12.696-14.509 20.316-20.402l-1.887 1.458c7.929-6.086 16.44-11.247 25.653-15.151l-2.24.945c8.827-3.704 18.096-6.273 27.581-7.58l-2.488.334c8.912-1.195 17.945-1.263 26.861-.067l-2.484-.334c7.772 1.075 15.379 3.106 22.618 6.138l-2.229-.941c6.562 2.784 12.711 6.431 18.355 10.781l-1.886-1.457a90.5 90.5 0 0 1 16.051 16.126l-1.455-1.884a90.7 90.7 0 0 1 11.605 19.902l-.937-2.22c2.762 6.617 4.707 13.545 5.69 20.651l-.332-2.468c.871 6.511.92 13.099.061 19.615l.331-2.465c-1.038 7.58-3.342 14.898-6.295 21.939l.934-2.212c-3.57 8.423-8.024 16.422-12.525 24.374-4.429 7.824-8.853 15.661-13.725 23.221-2.727 4.231-5.599 8.367-8.673 12.354l1.442-1.866c-5.746 7.403-12.221 14.156-19.636 19.902l1.863-1.44a104 104 0 0 1-22.927 13.362l2.196-.927c-7.918 3.309-16.218 5.622-24.721 6.793l2.44-.328c-7.839 1.046-15.773 1.105-23.617.075l2.436.327c-7.345-.999-14.509-2.991-21.341-5.864l2.186.923c-7.034-2.993-13.681-6.812-19.747-11.469l1.821 1.407c-5.634-4.363-10.715-9.393-15.078-15.029l1.38 1.786c-3.809-4.967-7.031-10.355-9.529-16.097l.874 2.071c-.523-1.245-1.069-2.479-1.599-3.72l.869 2.059c-2.737-6.498-4.523-13.347-5.486-20.326l.288 2.143c-.719-5.419-.912-10.872-.831-16.334.042-2.781.188-5.56.423-8.331a133 133 0 0 1 .629-5.861c.051-.408.23-1.318-.065.478.075-.454.128-.913.195-1.369 1.651-11.21 4.473-22.198 7.865-32.997 1.893-6.029 3.93-12.011 5.997-17.982.825-2.383-.94-5.372-3.363-5.924-2.822-.643-4.872.87-5.924 3.363Z"/></g><path fill="#ff8345" d="M437.893 542.579a2610 2610 0 0 0 146.233-75.457c2.969-1.652 5.902-3.368 8.839-5.077s5.661-3.824 8.442-5.758c1.703-1.184 2.651-3.534 1.425-5.436-1.264-1.961-3.404-2.347-5.436-1.425-2.809 1.274-5.689 2.447-8.451 3.817-2.675 1.327-5.272 2.86-7.891 4.294-5.251 2.876-10.458 5.834-15.7 8.725a2613 2613 0 0 1-95.63 50.191 2631 2631 0 0 1-36.63 17.913c-2.249 1.078-3.019 4.47-1.706 6.506 1.492 2.314 4.098 2.854 6.506 1.706Zm11.725 72.901a2484 2484 0 0 1 64.249-31.831c21.563-10.297 43.104-20.616 64.871-30.478q9.074-4.111 18.181-8.15c3.101-1.375 6.282-2.638 9.316-4.155 1.442-.721 2.88-1.449 4.321-2.172 1.618-.811 2.978-1.867 4.424-2.951 1.844-1.383 2.827-3.45 1.872-5.713-.93-2.204-3.12-3.07-5.397-2.649-1.412.261-2.884.422-4.235.914-1.511.551-3.005 1.155-4.506 1.734-3.031 1.17-5.974 2.542-8.933 3.881a2466 2466 0 0 0-48.853 22.754 1895 1895 0 0 0-64.187 32.269 2494 2494 0 0 0-35.497 19.063c-1.991 1.09-2.799 4.001-1.555 5.93 1.329 2.061 3.769 2.665 5.93 1.555Zm42.848 68.458 61.918-25.201c6.072-2.471 12.003-5.233 17.919-8.051 1.89-.9 2.477-3.479 1.724-5.262-.769-1.822-2.975-3.128-4.971-2.44-10.535 3.631-20.808 7.811-31.112 12.047l-30.466 12.524-17.541 7.211c-2.292.942-4.179 3.2-3.321 5.85.717 2.215 3.383 4.326 5.85 3.321ZM358.11 296.144c-.457-9.5-.218-19.001.635-28.472.212-2.355.391-4.712.647-7.064q.181-1.671.393-3.339l.096-.741c.159-1.248-.131.925-.016.119q.142-1.01.29-2.019c.694-4.641 1.567-9.255 2.63-13.826s2.305-9.058 3.752-13.501a150 150 0 0 1 3.578-9.82c.206-.508.431-1.01.626-1.522-.774 2.034.082-.179.276-.623 3.688-8.421 8.218-16.484 13.644-23.91q.53-.726 1.072-1.443l.545-.715c.474-.623-1.231 1.577-.273.36.774-.983 1.567-1.952 2.362-2.917a108 108 0 0 1 5.234-5.9 105 105 0 0 1 11.552-10.42l-1.587 1.226c8.239-6.351 17.389-11.38 26.95-15.443l-1.987.839c11.542-4.866 23.641-8.343 36.058-10.053l-2.364.318c10.006-1.344 20.153-1.52 30.171-.198l-2.488-.334c7.971 1.085 15.776 3.13 23.193 6.255l-2.324-.981c6.818 2.913 13.258 6.612 19.142 11.125l-1.989-1.536c6.331 4.9 11.957 10.63 16.856 16.957l-1.539-1.992c5.532 7.203 10.083 15.107 13.624 23.467l-.995-2.357c1.37 3.268 2.563 6.599 3.95 9.86l-.985-2.333c3.223 7.659 5.713 15.668 7.571 23.765a169 169 0 0 1 2.527 13.602c.03.216.24.865.001.061-.259-.872-.03.024-.009.304q.121 1.61.211 3.223.172 3.107.232 6.219.066 3.45-.002 6.901c-.048 2.467.043 4.869.183 7.333.133 2.349 1.685 4.291 4.071 4.611 2.275.306 4.536-1.091 5.152-3.363 2.112-7.796 2.499-16.176 2.678-24.233.086-3.904.389-7.797.355-11.706a140 140 0 0 0-.575-11.585c-.759-8.23-2.031-16.921-5.021-24.667-2.64-6.84-5.748-13.503-9.576-19.762-7.677-12.555-17.706-23.447-29.754-31.903-6.178-4.336-12.895-7.672-19.973-10.282-7.329-2.703-14.921-4.204-22.658-5.152-14.828-1.816-30.11-.249-44.56 3.353a143 143 0 0 0-20.485 6.809c-7.524 3.142-14.87 6.633-21.804 10.942-12.121 7.532-22.455 17.091-31.113 28.394-.479.625.716-.923.621-.801-.463.597-.926 1.193-1.37 1.804q-.315.433-.628.869a114 114 0 0 0-3.789 5.645 120 120 0 0 0-4.658 8.095c-3.072 5.847-5.705 11.946-7.952 18.155-4.399 12.158-7.051 24.846-8.533 37.674-1.457 12.609-1.416 25.209-.092 37.828.342 3.259.764 6.509 1.245 9.75.256 1.722 2.338 2.778 3.897 2.544 1.663-.25 3.166-1.694 3.079-3.488Z"/><path fill="#8170f9" d="m520.706 879.718-6.419 25.139c-.965 3.778-2.363 8.084-.246 11.744 1.964 3.395 6.103 4.445 9.739 3.642 3.874-.856 6.595-4.038 8.854-7.062 2.546-3.408 5.044-6.854 7.566-10.281l15.34-20.852 17.405-23.659-6.724-1.821c-.283 5.659-2.615 11.636-5.099 16.695-2.778 5.658-6.012 11.073-8.652 16.801-2.871 6.23-5.245 12.687-6.98 19.325a111 111 0 0 0-2.1 9.846c-.498 3.004-1.174 6.16-.794 9.215.463 3.721 2.159 6.859 5.789 8.295 3.909 1.546 7.839-.508 10.843-2.929 4.476-3.607 8.262-8.097 11.701-12.675 6.605-8.793 11.56-18.709 16.117-28.675 2.616-5.721 5.181-11.468 7.989-17.098a168 168 0 0 1 4.303-8.113c1.566-2.753 3.046-5.55 4.621-8.298 1.455-2.539-2.112-5.519-4.16-3.21-1.847 2.082-3.666 4.204-5.191 6.536a148 148 0 0 0-4.194 6.836c-2.694 4.649-5.181 9.413-7.639 14.19-4.809 9.344-9.405 18.889-15.229 27.658a103 103 0 0 1-3.233 4.589q-.335.449-.678.893c.463-.6-.062.072-.238.293a76 76 0 0 1-5.183 5.877 68 68 0 0 1-4.119 3.865c-.242.208-.494.406-.732.619q-.361.294.11-.077-.331.244-.676.469c-.226.146-.481.271-.703.425-.918.638.659-.096-.386.2-.25.071-.492.142-.746.196l.454-.065q-.788-.021.087.065l-.365-.104.434.168c-.755-.725.639.756-.027-.036.685.815.297.437.175.199q-.335-.643.058.254a7 7 0 0 1-.195-.592c-.058-.205-.093-.415-.146-.622-.268-1.033-.008.97-.004-.116.002-.558-.035-1.112-.008-1.672a25 25 0 0 1 .162-1.755q.054-.455.113-.908c-.098.763.101-.702.124-.862a110.6 110.6 0 0 1 5.904-22.788 91 91 0 0 1 1.633-4.07c2.727-6.272 6.083-12.249 8.819-18.519 2.852-6.538 4.936-13.15 5.258-20.323.07-1.571-1.171-3.073-2.649-3.48-1.646-.452-3.123.351-4.075 1.658l-28.109 38.619-7.027 9.655c-2.005 2.754-3.983 5.818-6.113 8.256-.525.601-1.089 1.222-1.73 1.703.302-.227-.772.469-.637.391 0 0-1.081.457-.458.245a8 8 0 0 1-.959.26c.648-.134-.355.016-.43.017a5 5 0 0 1-.654-.027c.846.098-.924-.33-.185-.031-.049-.02-.883-.545-.392-.161-.026-.02-.58-.708-.355-.361-.262-.406-.298-.819-.308-1.272-.036-1.48.407-2.977.766-4.541l6.04-26.278c.813-3.538-4.552-5.046-5.456-1.504Zm71.177 55.104a260 260 0 0 0 8.505-8.919c2.915-3.209 5.557-6.664 8.179-10.114a257 257 0 0 0 7.246-10.026c2.372-3.454 4.387-7.156 6.397-10.829 2.058-3.762-3.383-6.891-5.718-3.342-2.267 3.448-4.705 6.781-6.952 10.24a258 258 0 0 1-6.839 10.002c-4.689 6.521-9.516 12.995-14.564 19.243-.898 1.112-1.087 2.659 0 3.746 1.015 1.015 2.732 1.015 3.746 0Z"/><path d="M500.221 773.234c-19.858-24.324-37.678-50.233-55.1-76.335-17.269-25.872-34.238-52.037-50.001-78.858-31.424-53.469-58.647-109.844-79.755-168.19-21.375-59.085-36.527-121.824-35.846-184.988.29-26.905 3.617-53.646 11.323-79.463 6.894-23.098 17.566-45.044 30.987-65.051 12.979-19.348 28.992-36.973 47.532-51.138 18.987-14.507 40.077-24.965 63.287-30.691 23.872-5.889 48.943-6.979 72.43-.29 22.505 6.41 42.557 19.346 59.202 35.776 38.212 37.72 56.071 92.652 66.344 144.463 11.523 58.117 12.18 118.14 7.151 177.019-5.184 60.701-16.775 120.781-33.606 179.311-17.543 61.006-40.75 120.166-67.132 177.865-6.459 14.127-12.044 28.899-19.249 42.657-3.555 6.788 6.728 12.82 10.292 6.016 7.636-14.58 16.495-28.467 23.884-43.213 7.278-14.524 14.404-29.149 20.858-44.06 13.144-30.367 25.144-61.226 35.675-92.598C628.939 560.57 643.452 497.905 651.7 434.2c7.819-60.395 10.078-121.961 2.473-182.499-3.79-30.168-9.817-60.05-19.268-88.979-8.631-26.418-19.505-52.713-35.724-75.44-30.178-42.288-78.63-74.494-132.384-70.655-50.083 3.576-97.933 29.087-132.039 65.383-34.199 36.394-56.898 83.927-66.21 132.849-12.104 63.583-4.484 129.087 13.054 190.889 17.676 62.288 43.82 122.828 74.909 179.558 15.303 27.925 31.932 55.117 49.649 81.574 17.771 26.537 37.627 51.675 58.086 76.183 10.027 12.012 20.216 23.887 30.272 35.874 3.354 3.998 8.949-1.728 5.704-5.704Z"/><path d="M353.421 310.344c.994 17.723 9.653 34.31 21.727 47.069 13.19 13.939 30.998 22.761 49.847 25.973 20.693 3.526 42.603.585 61.941-7.482 9.253-3.86 18.068-8.496 26.353-14.156a178 178 0 0 0 23.396-19.107c7.32-7.091 13.754-14.957 19.529-23.355 2.97-4.319 5.381-9.209 7.338-14.061.888-2.202 1.608-4.448 2.396-6.684.797-2.263 1.637-4.494 2.3-6.803.728-2.536.655-5.232.558-7.846-.126-3.384-4.459-4.531-6.282-1.701-.367.57-.821 1.135-1.144 1.73-.08.148-.272.715-.018.147-.099.221-.672.882-.921 1.233-.83 1.172-1.417 2.369-2.045 3.657-1.18 2.42-2.45 4.779-4.004 6.979-.743 1.052-1.529 2.069-2.291 3.107 1.255-1.709-.602.751-.799 1.006l-.533.69q1.38-1.773-.524.685c-.261.342-.539.676-.783 1.03 1.215-1.764-.002-.014-.33.393q-.596.74-1.203 1.471a143 143 0 0 1-2.768 3.211c-3.523 3.985-6.86 8.093-10.555 11.93-3.593 3.731-7.163 7.496-10.908 11.075a172 172 0 0 1-13.503 11.634l1.801-1.391c-9.604 7.396-20.031 13.697-31.199 18.436l2.14-.903c-9.733 4.093-19.916 7.023-30.382 8.467l2.342-.315c-10.072 1.349-20.373 1.328-30.448-.008l2.222.299c-7.8-1.071-15.453-3.067-22.721-6.106l1.815.766c-4.548-1.927-8.893-4.278-13.085-6.886a83 83 0 0 1-6.073-4.163c-.194-.146-.386-.303-.585-.444 1.491 1.058.671.518.31.232a83 83 0 0 1-4.38-3.723 83 83 0 0 1-7.399-7.682q-.59-.699-1.162-1.411l-.455-.571c-.731-.916.604.814-.048-.06-2.926-3.926-5.537-8.054-7.678-12.462a69 69 0 0 1-.921-1.976l-.293-.664c-.49-1.111.331.835-.128-.304a116 116 0 0 1-1.423-3.783c-.961-2.653-1.843-5.309-2.52-8.051-.881-3.569-6.715-2.894-6.503.88Z"/><path fill="#ff8345" d="M792.068 322.81a1146 1146 0 0 1 4.472-6.273l.562-.782c-.057.081-.385.471-.037.041.644-.795 1.3-1.58 1.951-2.369 2.854-3.456 5.511-7.053 8.218-10.623q1.896-2.5 3.804-4.988.955-1.244 1.913-2.487c.459-.597-.302.39-.317.409q.22-.281.437-.564l1.02-1.316a968 968 0 0 1 7.791-9.92c3.256-4.082 6.341-8.307 9.532-12.44l-1.258 1.629a1131 1131 0 0 1 21.032-26.4c.892-1.088 1.904-2.163 2.569-3.4.416-.774.758-1.606 1.133-2.401.949-2.01 1.575-4.318.856-6.54-.579-1.789-1.547-3.254-3.042-4.409-1.432-1.106-3.284-1.906-5.143-1.822-2.359.106-4.195.968-6.002 2.486-.614.516-1.254 1.012-1.847 1.552-1.053.959-1.847 2.154-2.679 3.308a1201 1201 0 0 0-8.913 12.511 1127 1127 0 0 0-11.408 16.553c-7.514 11.112-14.486 22.551-21.306 34.101-1.875 3.175-3.662 6.363-5.338 9.647-1.743 3.416-3.771 6.683-5.694 10.001-1.169 2.017-.534 4.968 1.598 6.095 2.29 1.21 4.653.438 6.095-1.598Zm44.447 65.24c4.748-4.184 9.621-8.249 14.49-12.291a265 265 0 0 1 5.377-4.347l1.022-.8c1.134-.891-1.079.823-.027.019a279 279 0 0 1 7.565-5.6c5.137-3.661 10.195-7.4 15.485-10.845s10.703-6.698 16.226-9.753c6.115-3.383 12.382-6.721 18.804-9.483l-1.982.836a9.7 9.7 0 0 1 2.227-.58l-2.17.292c1.732-.174 3.214.029 4.99-.336l-1.938.26q.129-.02.258-.009l-1.848-.248c-3.06-.887-3.122-2.232-2.282-1.21 1.974 2.4 6.811 2.433 8.768 0 1.862-2.314 2.963-5.114 2.134-8.123-.584-2.121-2.183-4.074-4.082-5.173-1.7-.984-3.231-1.263-5.16-1.443-4.365-.407-8.19 1.659-11.924 3.595a262 262 0 0 0-19.401 11.142c-13.038 8.246-25.362 17.549-36.527 28.203q-4.59 4.38-8.962 8.977c-4.372 4.597-5.561 6.447-8.194 9.764-.866 1.092-1.481 2.123-1.481 3.575 0 1.24.551 2.722 1.481 3.575 2.123 1.949 5.027 1.871 7.151 0Zm79.659 31.741 21.682-9.569 10.727-4.734 5.478-2.417c.838-.37 1.651-.761 2.43-1.246 1.456-.906 2.329-2.128 3.16-3.581 1.412-2.468.228-6.296-2.806-6.897-1.54-.305-3.039-.588-4.603-.233-1.273.289-2.568.945-3.732 1.479-1.81.83-3.606 1.69-5.409 2.534l-10.819 5.068-21.637 10.137c-2.602 1.219-3.468 5.164-1.965 7.495 1.757 2.725 4.68 3.207 7.495 1.965Z"/><path fill="#8170f9" d="M141.398 698.85c-22.112 8.446-43.014 20.045-61.498 34.847-8.933 7.153-17.428 15.015-24.623 23.939-7.662 9.503-14.419 20.315-17.114 32.368-2.642 11.818-1.164 24.423 5.843 34.526 6.3 9.085 15.441 15.549 25.53 19.846 11.279 4.803 23.088 7.27 35.215 8.823a162 162 0 0 0 37.772.388c13.065-1.395 25.956-4.055 38.382-8.353 10.298-3.562 20.353-8.2 29.168-14.666s16.942-14.483 21.599-24.536c5.383-11.62 7.869-26.718-1.241-37.181-7.565-8.688-20.751-8.34-30.768-4.952-11.101 3.756-20.672 10.946-29.828 18.065a193 193 0 0 0-25.653 23.978c-8.152 9.155-15.777 19.082-21.839 29.758-6.383 11.241-11.024 23.871-10.961 36.945.057 11.868 3.98 23.621 10.307 33.597 6.5 10.249 15.18 18.637 25.296 25.283 5.014 3.294 10.333 6.108 15.811 8.549 5.967 2.658 12.224 4.635 18.514 6.374 2.822.78 5.648 1.422 8.524 1.973a314 314 0 0 0 6.256 1.135q.54.095 1.08.185c.558.091 2.866.643 1.295.218 2.672.724 5.879-.903 6.516-3.7s-.838-5.741-3.7-6.516c.248.067 1.257.564-.175-.04a43 43 0 0 0-1.052-.428c-.408-.16-.818-.314-1.226-.472q-1.433-.555-2.86-1.121a292 292 0 0 1-5.096-2.074q-.304-.129-.61-.256c1.497.613.687.288.358.149-.571-.242-1.182-.579-1.782-.742-.689-.188.571.2.572.274-.005-.26-3.302-1.331-3.848-1.546q-1.227-.483-2.447-.98-.712-.292-1.421-.586c-.199-.082-.929-.389.039.018 1.019.428.057.022-.153-.068-6.735-2.895-13.465-6.09-19.801-9.783a100 100 0 0 1-10.622-7.124l1.622 1.253c-5.385-4.183-10.293-9.007-14.478-14.394l1.273 1.647c-3.487-4.539-6.438-9.459-8.676-14.731l.823 1.949c-1.83-4.389-3.136-8.963-3.804-13.673l.292 2.173a51 51 0 0 1-.018-13.288l-.293 2.177c.761-5.558 2.367-10.932 4.525-16.102l-.828 1.961c4.222-9.957 10.313-19.022 16.89-27.563l-1.289 1.669c10.035-12.971 21.657-24.641 34.62-34.688l-1.667 1.288a193 193 0 0 1 11.894-8.489c3.456-2.271 6.954-4.386 10.77-6.003l-1.966.83c3.316-1.379 6.763-2.429 10.325-2.929l-2.187.294c2.172-.282 4.354-.349 6.53-.077l-2.186-.294c1.453.205 2.856.558 4.216 1.112l-1.964-.829a14.6 14.6 0 0 1 2.964 1.705l-1.664-1.286c.941.735 1.766 1.57 2.499 2.512l-1.286-1.664a15.4 15.4 0 0 1 1.825 3.2l-.829-1.964a19 19 0 0 1 1.106 4.33l-.294-2.185c.288 2.419.195 4.835-.111 7.248l.294-2.185a41.6 41.6 0 0 1-2.866 10.466l.828-1.962c-1.608 3.75-3.722 7.235-6.214 10.462l1.284-1.662c-3.333 4.258-7.256 7.993-11.525 11.301l1.661-1.283c-6.465 4.962-13.636 8.926-21.134 12.094l1.959-.827c-12.483 5.225-25.816 8.564-39.207 10.392l2.178-.293a170.3 170.3 0 0 1-45.013.028l2.146.288c-9.969-1.358-19.909-3.465-29.222-7.353l1.891.798c-4.871-2.061-9.534-4.598-13.739-7.821l1.586 1.225c-2.854-2.221-5.446-4.733-7.664-7.593l1.216 1.574a36.3 36.3 0 0 1-4.571-7.86l.779 1.847a37.8 37.8 0 0 1-2.452-9.078l.272 2.028c-.453-3.479-.41-6.973.038-10.45l-.266 1.977c.583-4.228 1.727-8.353 3.285-12.324.099-.253.203-.504.302-.757.431-1.1-.221.495-.251.582.177-.511.442-1.016.667-1.507q.688-1.508 1.443-2.983c1.013-1.982 2.11-3.921 3.275-5.818s2.405-3.758 3.7-5.575c.644-.904 1.309-1.791 1.974-2.679.278-.372.792-.718-.299.383.184-.186.353-.451.512-.653q.576-.729 1.164-1.449c2.809-3.44 5.824-6.704 8.843-9.958a201.5 201.5 0 0 1 23.173-21.355l.656-.514c.793-.624-.438.331.079-.063a237 237 0 0 1 5.394-4.005 204 204 0 0 1 11.15-7.456c4.267-2.654 8.612-5.162 13.128-7.368a198 198 0 0 1 9.321-4.262c.651-.279-.038.014.351-.148q1.838-.765 3.687-1.498c2.013-.797 3.644-2.815 2.901-5.109-.638-1.973-2.936-3.731-5.109-2.901Z"/></svg>